<?xml version="1.0" encoding="utf-8"?>
<!-- Generator: Adobe Illustrator 27.5.0, SVG Export Plug-In . SVG Version: 6.00 Build 0)  -->
<svg version="1.1" xmlns="http://www.w3.org/2000/svg" xmlns:xlink="http://www.w3.org/1999/xlink" x="0px" y="0px"
	 viewBox="0 0 500 500" style="enable-background:new 0 0 500 500;" xml:space="preserve">
<g id="Background_Complete">
	<g>
		<rect y="382.398" style="fill:#EBEBEB;" width="500" height="0.25"/>
		<rect x="416.779" y="398.494" style="fill:#EBEBEB;" width="33.122" height="0.25"/>
		<rect x="322.527" y="401.208" style="fill:#EBEBEB;" width="8.693" height="0.25"/>
		<rect x="396.586" y="389.208" style="fill:#EBEBEB;" width="19.192" height="0.25"/>
		<rect x="52.459" y="390.888" style="fill:#EBEBEB;" width="43.193" height="0.25"/>
		<rect x="104.556" y="390.888" style="fill:#EBEBEB;" width="6.333" height="0.25"/>
		<rect x="131.471" y="395.111" style="fill:#EBEBEB;" width="93.676" height="0.25"/>
		<path style="fill:#EBEBEB;" d="M237.014,337.8H43.915c-3.147,0-5.708-2.561-5.708-5.708V60.66c0-3.147,2.561-5.708,5.708-5.708
			h193.099c3.146,0,5.707,2.561,5.707,5.708v271.432C242.721,335.239,240.16,337.8,237.014,337.8z M43.915,55.203
			c-3.01,0-5.458,2.448-5.458,5.458v271.432c0,3.01,2.448,5.458,5.458,5.458h193.099c3.009,0,5.457-2.448,5.457-5.458V60.66
			c0-3.009-2.448-5.458-5.457-5.458H43.915z"/>
		<path style="fill:#EBEBEB;" d="M453.31,337.8H260.212c-3.147,0-5.707-2.561-5.707-5.708V60.66c0-3.147,2.561-5.708,5.707-5.708
			H453.31c3.148,0,5.708,2.561,5.708,5.708v271.432C459.019,335.239,456.458,337.8,453.31,337.8z M260.212,55.203
			c-3.009,0-5.457,2.448-5.457,5.458v271.432c0,3.01,2.448,5.458,5.457,5.458H453.31c3.01,0,5.458-2.448,5.458-5.458V60.66
			c0-3.009-2.448-5.458-5.458-5.458H260.212z"/>
	</g>
	<g>
		<g>
			<g>
				<rect x="318.453" y="123.396" style="fill:#F5F5F5;" width="96.962" height="121.342"/>
				<polygon style="fill:#EBEBEB;" points="351.429,136.303 351.429,189.65 373.847,188.456 376.421,136.303 				"/>
				<polygon style="fill:#E0E0E0;" points="369.581,146.628 404.069,146.628 403.767,193.326 385.906,193.59 				"/>
				<polygon style="fill:#E6E6E6;" points="335.999,139.745 345.075,139.745 341.899,181.408 330.554,184.067 				"/>
			</g>
			<g>
				<rect x="82.656" y="123.396" style="fill:#F5F5F5;" width="96.962" height="121.342"/>
				<polygon style="fill:#E0E0E0;" points="127.493,138.405 164.302,205.053 98.668,214.692 				"/>
				<polygon style="fill:#EBEBEB;" points="169.975,133.482 97.959,235.73 144.149,235.73 92.635,144.249 92.635,198.368 
					167.735,175.049 				"/>
			</g>
			<g>
				
					<rect x="200.555" y="123.396" transform="matrix(-1 -1.224647e-16 1.224647e-16 -1 498.0708 368.1345)" style="fill:#E6E6E6;" width="96.962" height="121.342"/>
				<polygon style="fill:#E0E0E0;" points="222.738,214.683 273.694,163.178 218.567,153.822 				"/>
				<polygon style="fill:#F0F0F0;" points="272.462,202.473 274.985,162.977 236.622,172.668 233.835,202.889 				"/>
				<ellipse style="fill:#FAFAFA;" cx="222.276" cy="146.897" rx="15.488" ry="15.929"/>
				<path style="fill:#E0E0E0;" d="M267.453,216.555c0-4.266,3.363-7.725,7.511-7.725c4.148,0,7.511,3.458,7.511,7.725
					c0,4.266-3.363,7.725-7.511,7.725C270.815,224.28,267.453,220.822,267.453,216.555z"/>
				<polygon style="fill:#F5F5F5;" points="273.181,230.132 251.49,216.555 269.723,201.106 				"/>
				<rect x="243.299" y="138.831" style="fill:#E0E0E0;" width="4.263" height="96.892"/>
				<rect x="282.896" y="138.831" style="fill:#EBEBEB;" width="5.516" height="92.606"/>
				<rect x="210.288" y="202.889" style="fill:#EBEBEB;" width="28.183" height="28.985"/>
			</g>
		</g>
		<g>
			<g>
				<path style="fill:#EBEBEB;" d="M145.525,334.464H79.008v-11.688c0-1.878,1.523-3.401,3.401-3.401h59.715
					c1.878,0,3.401,1.523,3.401,3.401V334.464z"/>
				<path style="fill:#EBEBEB;" d="M213.91,334.464h-66.517v-11.688c0-1.878,1.523-3.401,3.401-3.401h59.715
					c1.878,0,3.401,1.523,3.401,3.401V334.464z"/>
				<path style="fill:#EBEBEB;" d="M282.294,334.464h-66.517v-11.688c0-1.878,1.523-3.401,3.401-3.401h59.715
					c1.878,0,3.401,1.523,3.401,3.401V334.464z"/>
				<path style="fill:#EBEBEB;" d="M350.678,334.464h-66.517v-11.688c0-1.878,1.523-3.401,3.401-3.401h59.715
					c1.878,0,3.401,1.523,3.401,3.401V334.464z"/>
				<path style="fill:#EBEBEB;" d="M419.063,334.464h-66.517v-11.688c0-1.878,1.523-3.401,3.401-3.401h59.715
					c1.878,0,3.401,1.523,3.401,3.401V334.464z"/>
			</g>
			<rect x="72.014" y="327.612" style="fill:#E0E0E0;" width="354.043" height="12.346"/>
			<path style="fill:none;stroke:#E0E0E0;stroke-width:5;stroke-miterlimit:10;" d="M432.052,383.207v-37.476
				c0-4.518-3.663-8.181-8.181-8.181H74.2c-4.518,0-8.181,3.663-8.181,8.181v37.476"/>
			
				<line style="fill:none;stroke:#E0E0E0;stroke-width:5;stroke-miterlimit:10;" x1="249.035" y1="333.785" x2="249.035" y2="383.207"/>
		</g>
	</g>
</g>
<g id="Background_Simple" style="display:none;">
	<g style="display:inline;">
		<path style="fill:#407BFF;" d="M95.99,107.953c27.919-59.449,127.059-51.062,165.317-9.255
			c38.258,41.806,50.696,68.599,85.208,52.983c34.512-15.616,78.518-11.44,81.043,38.164s-37.913,108.263-102.09,125.615
			c-64.177,17.352-64.161,78.759-149.1,66.368c-46.31-6.756-47.365-56.86-40.825-98.301
			C142.082,242.087,63.611,176.897,95.99,107.953z"/>
		<path style="opacity:0.9;fill:#FFFFFF;" d="M95.99,107.953c27.919-59.449,127.059-51.062,165.317-9.255
			c38.258,41.806,50.696,68.599,85.208,52.983c34.512-15.616,78.518-11.44,81.043,38.164s-37.913,108.263-102.09,125.615
			c-64.177,17.352-64.161,78.759-149.1,66.368c-46.31-6.756-47.365-56.86-40.825-98.301
			C142.082,242.087,63.611,176.897,95.99,107.953z"/>
	</g>
</g>
<g id="Shadow_1_">
	<ellipse id="_x3C_Path_x3E__359_" style="fill:#F5F5F5;" cx="250" cy="416.238" rx="193.889" ry="11.323"/>
</g>
<g id="Rolls">
	<g>
		<g>
			<path style="fill:#407BFF;" d="M361.849,249.283c-3.442-48.157-35.425-85.11-71.436-82.536c-1.21,0.086-2.408,0.22-3.595,0.392
				c-0.026,0.002-0.052,0.002-0.078,0.004c-36.011,2.574-62.414,43.7-58.973,91.857c3.442,48.157,35.425,85.11,71.436,82.536
				c1.21-0.087,2.408-0.22,3.595-0.392c0.026-0.002,0.052-0.002,0.078-0.004C338.888,338.566,365.291,297.44,361.849,249.283z
				 M350.436,250.451c0.718,10.352-4.385,19.31-11.711,21.308c-7.954-0.391-14.757-8.824-15.505-19.614
				c-0.718-10.352,4.384-19.31,11.711-21.308C342.885,231.228,349.688,239.661,350.436,250.451z M317.537,186.154
				c7.752,5.29,11.08,17.783,7.433,27.904c-2.072,5.751-5.95,9.495-10.335,10.689c-2.224-0.117-4.484-0.873-6.63-2.337
				c-7.752-5.29-11.08-17.783-7.433-27.904c2.072-5.751,5.95-9.495,10.335-10.689C313.13,183.934,315.391,184.69,317.537,186.154z
				 M289.345,268.148c-0.248-0.93-0.213-1.918,0.099-2.781c0.104-0.289,0.237-0.552,0.392-0.785
				c1.054,1.062,1.459,2.977,0.888,4.562c-0.104,0.289-0.237,0.552-0.393,0.786C289.88,269.478,289.536,268.866,289.345,268.148z
				 M292.348,254.25c-0.16-2.236,0.659-4.237,1.986-5.286c1.57,0.785,2.766,2.724,2.933,5.069c0.16,2.236-0.659,4.237-1.986,5.286
				C293.712,258.533,292.516,256.595,292.348,254.25z M300.271,240.134c0.248,0.93,0.213,1.917-0.098,2.781
				c-0.104,0.289-0.237,0.552-0.392,0.785c-1.054-1.062-1.459-2.977-0.888-4.562c0.104-0.289,0.238-0.552,0.393-0.786
				C299.736,238.803,300.08,239.416,300.271,240.134z M239.18,257.831c-0.718-10.352,4.385-19.31,11.712-21.308
				c7.954,0.391,14.757,8.825,15.505,19.614c0.718,10.352-4.385,19.31-11.711,21.308
				C246.731,277.054,239.928,268.621,239.18,257.831z M272.079,322.127c-7.752-5.29-11.08-17.783-7.433-27.904
				c2.072-5.751,5.951-9.495,10.335-10.689c2.224,0.117,4.484,0.873,6.63,2.337c7.752,5.29,11.08,17.783,7.433,27.904
				c-2.072,5.751-5.95,9.495-10.335,10.689C276.486,324.348,274.225,323.592,272.079,322.127z M288.701,239.976
				c0.427,0.814,0.598,1.788,0.481,2.743c-0.081,0.661-0.301,1.25-0.621,1.733c-0.238-0.24-0.453-0.524-0.628-0.857
				c-0.427-0.813-0.598-1.788-0.482-2.742c0.081-0.661,0.301-1.251,0.621-1.734C288.311,239.359,288.526,239.643,288.701,239.976z
				 M284.645,254.902c0.07,1.015-0.18,1.954-0.638,2.65c-0.623-0.63-1.064-1.579-1.14-2.678c-0.07-1.015,0.18-1.953,0.637-2.649
				C284.128,252.855,284.568,253.805,284.645,254.902z M280.876,195.987c5.009,9.536,3.437,22.36-3.512,28.645
				c-1.655,1.496-3.466,2.471-5.332,2.984c-4.834-0.248-9.606-3.475-12.648-9.267c-5.01-9.536-3.437-22.36,3.512-28.645
				c1.654-1.496,3.466-2.471,5.332-2.984C273.063,186.968,277.834,190.195,280.876,195.987z M300.915,268.306
				c-0.75-1.428-0.654-3.273,0.14-4.476c0.237,0.24,0.452,0.523,0.627,0.857c0.428,0.814,0.599,1.788,0.482,2.742
				c-0.081,0.661-0.301,1.251-0.621,1.734C301.305,268.923,301.09,268.639,300.915,268.306z M304.971,253.379
				c-0.07-1.014,0.18-1.953,0.637-2.649c0.624,0.63,1.064,1.579,1.14,2.677c0.07,1.015-0.181,1.954-0.638,2.65
				C305.488,255.427,305.048,254.478,304.971,253.379z M308.739,312.295c-5.01-9.536-3.437-22.36,3.512-28.645
				c1.654-1.496,3.466-2.471,5.332-2.983c4.834,0.248,9.606,3.475,12.648,9.267c5.01,9.536,3.437,22.36-3.512,28.645
				c-1.654,1.496-3.466,2.471-5.332,2.984C316.553,321.313,311.782,318.086,308.739,312.295z"/>
			<path style="opacity:0.2;" d="M290.413,166.746c-36.011,2.574-62.414,43.699-58.973,91.857s35.425,85.11,71.437,82.536
				c36.011-2.574,62.414-43.699,58.973-91.857C358.407,201.125,326.424,164.172,290.413,166.746z M300.572,194.506
				c3.646-10.121,12.886-14.038,20.638-8.748c7.752,5.29,11.08,17.783,7.433,27.904c-3.647,10.121-12.887,14.038-20.638,8.748
				S296.925,204.628,300.572,194.506z M310.422,253.011c0.139,2.004-0.967,3.721-2.466,3.828l-0.007,0
				c-1.503,0.101-2.839-1.451-2.978-3.46c-0.139-2.004,0.967-3.721,2.466-3.828C308.947,249.449,310.283,251.001,310.422,253.011z
				 M298.893,239.138c0.409-1.136,1.26-1.885,2.22-1.954c0.486-0.035,0.977,0.107,1.422,0.411c0.661,0.451,1.162,1.212,1.41,2.142
				c0.248,0.93,0.213,1.917-0.098,2.781c-0.41,1.137-1.261,1.886-2.22,1.954c-0.485,0.035-0.977-0.107-1.422-0.411
				C298.839,243.131,298.25,240.922,298.893,239.138z M292.374,239.579c0.427,0.814,0.599,1.788,0.482,2.743
				c-0.117,0.954-0.508,1.775-1.101,2.311c-0.395,0.357-0.857,0.564-1.337,0.598c-0.966,0.069-1.918-0.558-2.484-1.637
				c-0.427-0.813-0.598-1.788-0.481-2.742c0.117-0.955,0.508-1.776,1.101-2.312c0.394-0.357,0.856-0.563,1.336-0.597
				C290.856,237.875,291.808,238.501,292.374,239.579z M262.897,189.704c6.949-6.284,16.644-3.649,21.653,5.887
				c5.009,9.536,3.437,22.36-3.512,28.645c-6.949,6.284-16.644,3.649-21.653-5.887C254.375,208.813,255.947,195.988,262.897,189.704
				z M288.318,254.506c0.139,2.004-0.967,3.721-2.466,3.828l-0.007,0c-1.503,0.101-2.839-1.451-2.978-3.46
				c-0.139-2.004,0.967-3.721,2.466-3.828C286.842,250.945,288.178,252.497,288.318,254.506z M239.18,257.831
				c-0.791-11.406,5.483-21.12,14.013-21.697c8.53-0.577,16.086,8.201,16.877,19.607c0.791,11.406-5.483,21.12-14.013,21.697
				C247.527,278.015,239.971,269.237,239.18,257.831z M292.717,313.379c-3.646,10.121-12.887,14.038-20.638,8.748
				c-7.752-5.29-11.08-17.783-7.433-27.904c3.646-10.121,12.887-14.038,20.638-8.748S296.364,303.258,292.717,313.379z
				 M294.397,268.747c-0.409,1.136-1.26,1.886-2.22,1.954c-0.485,0.035-0.977-0.107-1.422-0.412
				c-0.662-0.451-1.162-1.212-1.41-2.142c-0.248-0.93-0.213-1.918,0.098-2.781c0.409-1.137,1.26-1.886,2.22-1.954
				c0.485-0.035,0.977,0.107,1.422,0.411C294.451,264.754,295.039,266.964,294.397,268.747z M292.348,254.25
				c-0.227-3.173,1.513-5.883,3.886-6.052c2.373-0.17,4.48,2.265,4.707,5.438c0.227,3.173-1.513,5.883-3.886,6.053
				C294.682,259.858,292.575,257.423,292.348,254.25z M300.915,268.306c-0.882-1.68-0.604-3.947,0.62-5.054
				c0.395-0.357,0.857-0.564,1.337-0.598c0.966-0.069,1.918,0.558,2.484,1.637c0.428,0.814,0.599,1.788,0.482,2.742
				c-0.117,0.955-0.508,1.776-1.101,2.312c-0.394,0.356-0.857,0.563-1.336,0.597C302.434,270.011,301.482,269.384,300.915,268.306z
				 M330.393,318.182c-6.949,6.284-16.644,3.649-21.653-5.887c-5.01-9.536-3.437-22.36,3.512-28.645
				c6.949-6.284,16.644-3.649,21.653,5.887C338.914,299.073,337.342,311.897,330.393,318.182z M340.096,271.751
				c-8.53,0.577-16.086-8.201-16.877-19.607c-0.791-11.406,5.483-21.12,14.013-21.697c8.53-0.577,16.086,8.201,16.877,19.607
				C354.9,261.46,348.626,271.174,340.096,271.751z"/>
		</g>
		<g>
			<path style="opacity:0.2;fill:#FAFAFA;" d="M316.612,153.169c59.783,5.471,64.016,80.305,60.047,108.997l-31.002-9.653
				c0,0-5.995-89.909-65.778-95.38c0,0-5.911-0.744-17.057,1.164c0,0,24.281-5.89,50.567-5.327"/>
			<path style="fill:#263238;" d="M316.612,153.169c59.783,5.471,64.016,80.305,60.047,108.997l-31.002-9.653
				c0,0-5.995-89.909-65.778-95.38c0,0-5.911-0.744-17.057,1.164c0,0,24.281-5.89,50.567-5.327"/>
			<g>
				<path style="fill:#263238;" d="M313.389,152.97c-6.432-0.138-12.741,0.112-18.607,0.567c-1.652,0.588-3.259,1.258-4.811,2.023
					c-2.224,0.126-4.39,0.279-6.485,0.451c1.137-0.633,2.305-1.197,3.489-1.73c-14.13,1.589-24.153,4.017-24.153,4.017l0.053-0.004
					c-50.397,12.395-54.961,103.247-84.042,96.501l0.467,0.145c0,0,18.048,6.985,37.127,5.136l-0.597-0.15
					c30.244,3.01,34.945-108.973,97.578-106.955L313.389,152.97z M255.838,161.014c1.418-0.247,2.917-0.492,4.497-0.726
					c-1.833,1.085-3.599,2.279-5.308,3.581c-0.001,0.009-0.01,0.008-0.01,0.008c-1.641,0.288-3.183,0.582-4.598,0.874
					C252.151,163.407,253.962,162.156,255.838,161.014z M248.66,166.153c1.374-0.253,2.836-0.494,4.389-0.732
					c-1.277,1.053-2.534,2.164-3.735,3.328l-0.009-0.001l-0.001,0.009c-1.641,0.288-3.164,0.575-4.551,0.854
					C246.014,168.411,247.314,167.252,248.66,166.153z M243.403,170.935c1.381-0.243,2.844-0.484,4.404-0.711
					c-1.029,1.034-2.036,2.097-3.012,3.202c-1.639,0.271-3.152,0.55-4.527,0.812C241.285,173.102,242.324,171.998,243.403,170.935z
					 M239.12,175.544l0.001-0.009l0.009,0.001c1.378-0.216,2.848-0.447,4.418-0.682c-0.862,1.002-1.71,2.034-2.536,3.096
					c-1.637,0.262-3.157,0.522-4.54,0.774C237.337,177.64,238.217,176.577,239.12,175.544z M235.44,180.046
					c1.387-0.215,2.872-0.426,4.449-0.642c-0.752,0.991-1.488,1.992-2.218,3.022c-1.625,0.237-3.141,0.47-4.53,0.703
					C233.883,182.083,234.648,181.058,235.44,180.046z M232.154,184.512c1.403-0.204,2.896-0.404,4.468-0.585
					c-0.667,0.966-1.328,1.951-1.964,2.949l-0.009-0.001c-1.621,0.21-3.145,0.433-4.549,0.646
					C230.775,186.501,231.456,185.501,232.154,184.512z M229.172,188.93c1.407-0.167,2.906-0.34,4.484-0.501
					c-0.612,0.956-1.216,1.921-1.803,2.898c-1.616,0.174-3.136,0.371-4.545,0.556C227.924,190.892,228.539,189.91,229.172,188.93z
					 M226.394,193.385c1.416-0.166,2.919-0.311,4.494-0.446c-0.565,0.944-1.112,1.89-1.659,2.837
					c-1.606,0.167-3.121,0.328-4.537,0.494C225.251,195.307,225.818,194.345,226.394,193.385z M223.799,197.829
					c1.421-0.138,2.922-0.265,4.493-0.373c-0.527,0.931-1.046,1.872-1.547,2.816c-1.6,0.122-3.112,0.266-4.552,0.41
					C222.722,199.724,223.252,198.775,223.799,197.829z M196.217,253.551c-1.59-0.148-3.079-0.299-4.48-0.439
					c0.87-0.73,1.715-1.545,2.537-2.453c1.4,0.148,2.882,0.29,4.437,0.424C197.889,251.991,197.06,252.817,196.217,253.551z
					 M200.971,248.347c-1.557-0.125-3.043-0.24-4.438-0.352c0.617-0.801,1.242-1.655,1.864-2.555
					c1.396,0.112,2.872,0.225,4.421,0.34C202.214,246.683,201.599,247.538,200.971,248.347z M204.631,243.01
					c-1.562-0.09-3.05-0.187-4.459-0.264c0.532-0.84,1.059-1.708,1.59-2.602c1.408,0.086,2.897,0.175,4.45,0.263
					C205.682,241.301,205.154,242.169,204.631,243.01z M207.78,237.639c-1.564-0.072-3.057-0.133-4.47-0.184
					c0.481-0.856,0.964-1.739,1.449-2.631c1.412,0.06,2.896,0.12,4.453,0.182C208.736,235.898,208.26,236.782,207.78,237.639z
					 M210.66,232.257c-1.578-0.037-3.075-0.072-4.49-0.106c0.455-0.869,0.912-1.755,1.363-2.661
					c1.425,0.034,2.911,0.077,4.479,0.122C211.553,230.508,211.105,231.387,210.66,232.257z M213.374,226.888
					c-1.582-0.011-3.082-0.019-4.501-0.026c0.44-0.889,0.888-1.777,1.33-2.683c1.419,0.006,2.92,0.015,4.482,0.032
					C214.244,225.109,213.804,226.007,213.374,226.888z M216.005,221.535c-1.593,0.006-3.098,0.033-4.521,0.053
					c0.448-0.888,0.89-1.794,1.332-2.701c1.433-0.028,2.927-0.038,4.503-0.055C216.878,219.739,216.436,220.645,216.005,221.535z
					 M218.607,216.197c-1.58,0.044-3.088,0.088-4.515,0.144c0.442-0.907,0.903-1.82,1.365-2.742
					c1.427-0.047,2.925-0.093,4.495-0.129C219.5,214.385,219.058,215.291,218.607,216.197z M221.243,210.872
					c-1.603,0.077-3.115,0.157-4.538,0.241c0.471-0.921,0.942-1.841,1.415-2.771c1.432-0.082,2.934-0.155,4.506-0.209
					C222.156,209.044,221.695,209.958,221.243,210.872z M219.389,205.902c0.492-0.945,0.993-1.88,1.503-2.822
					c1.425-0.101,2.931-0.201,4.5-0.291c-0.49,0.927-0.98,1.855-1.462,2.783C222.334,205.668,220.818,205.775,219.389,205.902z
					 M222.753,255.539c-1.687-0.098-3.321-0.188-4.917-0.291c1.072-0.684,2.109-1.517,3.122-2.499
					c1.553,0.088,3.15,0.183,4.785,0.264C224.776,253.992,223.781,254.84,222.753,255.539z M228.329,250.079
					c-1.607-0.087-3.179-0.168-4.714-0.254c0.645-0.806,1.29-1.676,1.924-2.592c1.525,0.093,3.087,0.174,4.686,0.259
					C229.601,248.409,228.966,249.271,228.329,250.079z M232.13,244.508c-1.591-0.075-3.145-0.155-4.662-0.238
					c0.515-0.842,1.024-1.713,1.528-2.611c1.517,0.083,3.071,0.163,4.652,0.245C233.144,242.803,232.644,243.674,232.13,244.508z
					 M235.266,238.908c-1.582-0.074-3.127-0.152-4.645-0.227c0.462-0.859,0.908-1.729,1.358-2.625
					c1.508,0.082,3.044,0.159,4.626,0.233C236.166,237.178,235.718,238.057,235.266,238.908z M238.059,233.297
					c-1.573-0.073-3.118-0.151-4.629-0.215c0.418-0.865,0.839-1.747,1.252-2.64c1.509,0.073,3.056,0.142,4.627,0.224
					C238.888,231.558,238.476,232.441,238.059,233.297z M240.674,227.671c-1.573-0.073-3.11-0.141-4.621-0.205
					c0.401-0.867,0.794-1.754,1.197-2.639c1.511,0.064,3.048,0.132,4.62,0.214C241.467,225.926,241.074,226.804,240.674,227.671z
					 M243.199,222.041c-1.573-0.073-3.111-0.132-4.625-0.179c0.384-0.879,0.778-1.765,1.163-2.652
					c1.512,0.055,3.049,0.123,4.622,0.196C243.974,220.294,243.581,221.171,243.199,222.041z M245.677,216.414
					c-1.583-0.065-3.122-0.115-4.636-0.162c0.393-0.877,0.787-1.764,1.182-2.659c1.513,0.046,3.061,0.107,4.634,0.18
					C246.463,214.659,246.07,215.536,245.677,216.414z M248.192,210.792c-1.584-0.056-3.133-0.108-4.658-0.138
					c0.403-0.885,0.806-1.77,1.209-2.655c1.514,0.038,3.063,0.089,4.646,0.154C248.987,209.038,248.585,209.914,248.192,210.792z
					 M250.76,205.177c-1.586-0.048-3.144-0.091-4.67-0.112c0.412-0.884,0.833-1.775,1.255-2.667c1.525,0.03,3.083,0.074,4.667,0.13
					C251.592,203.411,251.172,204.293,250.76,205.177z M253.434,199.577c-1.594-0.049-3.164-0.076-4.7-0.089
					c0.441-0.898,0.881-1.787,1.329-2.674c1.535,0.022,3.095,0.057,4.689,0.106C254.305,197.798,253.865,198.687,253.434,199.577z
					 M255.905,194.663c-1.617-0.016-3.198-0.026-4.748-0.006c0.459-0.895,0.927-1.798,1.404-2.691
					c1.547-0.003,3.129,0.008,4.744,0.032C256.829,192.883,256.362,193.777,255.905,194.663z M258.505,189.794
					c-1.637,0-3.241,0.022-4.802,0.059c0.498-0.917,1.003-1.824,1.525-2.72c1.567-0.018,3.161-0.033,4.798-0.024
					C259.513,187.998,259.009,188.896,258.505,189.794z M261.299,184.962c-1.668,0.023-3.302,0.068-4.893,0.128
					c0.553-0.927,1.106-1.846,1.674-2.753c1.589-0.042,3.222-0.079,4.888-0.093C262.401,183.142,261.843,184.042,261.299,184.962z
					 M264.328,180.134c-1.698,0.046-3.354,0.115-4.966,0.199c0.6-0.939,1.217-1.867,1.849-2.775c1.628-0.064,3.292-0.123,4.988-0.16
					C265.559,178.297,264.936,179.205,264.328,180.134z M267.689,175.326c-1.738,0.076-3.433,0.167-5.084,0.265
					c0.685-0.964,1.393-1.897,2.116-2.81c1.66-0.096,3.37-0.167,5.106-0.225C269.096,173.458,268.389,174.382,267.689,175.326z
					 M271.513,170.5c-1.795,0.095-3.538,0.207-5.229,0.335c0.805-0.983,1.634-1.936,2.477-2.868
					c1.715-0.106,3.474-0.198,5.277-0.283C273.179,168.596,272.344,169.529,271.513,170.5z M276.04,165.635
					c-1.87,0.112-3.688,0.241-5.445,0.387c0.991-1.012,2.002-1.984,3.045-2.917c1.791-0.132,3.633-0.239,5.518-0.331
					C278.091,163.685,277.054,164.645,276.04,165.635z M281.735,160.689c-0.009-0.001-0.01,0.008-0.01,0.008
					c-1.979,0.115-3.908,0.264-5.776,0.431c1.324-1.074,2.676-2.081,4.079-3.008c0.009,0.001,0.009,0.001,0.009,0.001
					c1.928-0.14,3.916-0.254,5.947-0.353C284.522,158.659,283.102,159.638,281.735,160.689z"/>
				<path style="opacity:0.4;fill:#FAFAFA;" d="M311.391,152.941c0.659,0.01,1.327,0.021,1.995,0.032l0.028-0.005
					C312.729,152.946,312.061,152.935,311.391,152.941z M289.971,155.559c-2.224,0.126-4.39,0.279-6.485,0.451
					c1.137-0.63,2.31-1.2,3.487-1.734c-1.296,0.146-2.547,0.299-3.772,0.455c-8.003,1.028-14.333,2.26-17.697,2.97
					c-1.556,0.327-2.483,0.552-2.651,0.592l0.018,0.003c-50.398,12.395-54.96,103.241-84.04,96.495l0.468,0.146
					c0,0,18.048,6.983,37.127,5.136l-0.595-0.146c29.91,2.971,34.832-106.559,95.559-106.987
					c-5.746-0.053-11.361,0.192-16.609,0.597C293.127,154.124,291.524,154.797,289.971,155.559z M255.838,161.014
					c1.418-0.247,2.917-0.492,4.497-0.726c-1.833,1.085-3.599,2.279-5.308,3.581c-0.001,0.009-0.01,0.008-0.01,0.008
					c-1.641,0.288-3.183,0.582-4.598,0.874C252.151,163.407,253.962,162.156,255.838,161.014z M248.66,166.153
					c1.374-0.253,2.836-0.494,4.389-0.732c-1.277,1.053-2.534,2.164-3.735,3.328l-0.009-0.001l-0.001,0.009
					c-1.641,0.288-3.164,0.575-4.551,0.854C246.014,168.411,247.314,167.252,248.66,166.153z M243.403,170.935
					c1.381-0.243,2.844-0.484,4.404-0.711c-1.029,1.034-2.036,2.097-3.012,3.202c-1.639,0.271-3.152,0.55-4.527,0.812
					C241.285,173.102,242.324,171.998,243.403,170.935z M239.12,175.544l0.001-0.009l0.009,0.001
					c1.378-0.216,2.848-0.447,4.418-0.682c-0.862,1.002-1.71,2.034-2.536,3.096c-1.637,0.262-3.157,0.522-4.54,0.774
					C237.337,177.64,238.217,176.577,239.12,175.544z M235.44,180.046c1.387-0.215,2.872-0.426,4.449-0.642
					c-0.752,0.991-1.488,1.992-2.218,3.022c-1.625,0.237-3.141,0.47-4.53,0.703C233.883,182.083,234.648,181.058,235.44,180.046z
					 M232.154,184.512c1.403-0.204,2.896-0.404,4.468-0.585c-0.667,0.966-1.328,1.951-1.964,2.949l-0.009-0.001
					c-1.621,0.21-3.145,0.433-4.549,0.646C230.775,186.501,231.456,185.501,232.154,184.512z M229.172,188.93
					c1.407-0.167,2.906-0.34,4.484-0.501c-0.612,0.956-1.216,1.921-1.803,2.898c-1.616,0.174-3.136,0.371-4.545,0.556
					C227.924,190.892,228.539,189.91,229.172,188.93z M226.394,193.385c1.416-0.166,2.919-0.311,4.494-0.446
					c-0.565,0.944-1.112,1.89-1.659,2.837c-1.606,0.167-3.121,0.328-4.537,0.494C225.251,195.307,225.818,194.345,226.394,193.385z
					 M223.799,197.829c1.421-0.138,2.922-0.265,4.493-0.373c-0.527,0.931-1.046,1.872-1.547,2.816
					c-1.6,0.122-3.112,0.266-4.552,0.41C222.722,199.724,223.252,198.775,223.799,197.829z M220.892,203.08
					c1.425-0.101,2.931-0.201,4.5-0.291c-0.49,0.927-0.98,1.855-1.462,2.783c-1.596,0.096-3.113,0.203-4.541,0.33
					C219.881,204.958,220.382,204.023,220.892,203.08z M218.12,208.341c1.432-0.082,2.934-0.155,4.506-0.209
					c-0.47,0.912-0.931,1.825-1.383,2.739c-1.603,0.077-3.115,0.157-4.538,0.241C217.176,210.192,217.648,209.271,218.12,208.341z
					 M215.457,213.599c1.427-0.047,2.925-0.093,4.495-0.129c-0.452,0.914-0.894,1.821-1.345,2.727
					c-1.58,0.044-3.088,0.088-4.515,0.144C214.534,215.434,214.995,214.521,215.457,213.599z M212.817,218.887
					c1.433-0.028,2.927-0.038,4.503-0.055c-0.442,0.907-0.884,1.813-1.315,2.704c-1.593,0.006-3.098,0.033-4.521,0.053
					C211.933,220.701,212.375,219.794,212.817,218.887z M210.203,224.179c1.419,0.006,2.92,0.015,4.482,0.032
					c-0.441,0.898-0.882,1.796-1.311,2.677c-1.582-0.011-3.082-0.019-4.501-0.026C209.313,225.974,209.761,225.086,210.203,224.179z
					 M207.533,229.49c1.425,0.034,2.911,0.077,4.479,0.122c-0.458,0.895-0.906,1.774-1.352,2.644
					c-1.578-0.037-3.075-0.072-4.49-0.106C206.624,231.282,207.082,230.396,207.533,229.49z M204.76,234.824
					c1.412,0.06,2.896,0.12,4.453,0.182c-0.477,0.893-0.952,1.777-1.432,2.633c-1.564-0.072-3.057-0.133-4.47-0.184
					C203.791,236.598,204.274,235.715,204.76,234.824z M201.762,240.144c1.408,0.086,2.897,0.175,4.45,0.263
					c-0.531,0.894-1.058,1.762-1.581,2.604c-1.562-0.09-3.05-0.187-4.459-0.264C200.704,241.906,201.231,241.038,201.762,240.144z
					 M198.397,245.44c1.396,0.112,2.872,0.225,4.421,0.34c-0.604,0.902-1.22,1.758-1.847,2.567c-1.557-0.125-3.043-0.24-4.438-0.352
					C197.15,247.194,197.775,246.34,198.397,245.44z M194.274,250.659c1.4,0.148,2.882,0.29,4.437,0.424
					c-0.822,0.908-1.651,1.734-2.494,2.468c-1.59-0.148-3.079-0.299-4.48-0.439C192.607,252.382,193.452,251.567,194.274,250.659z
					 M222.753,255.539c-1.687-0.098-3.321-0.188-4.917-0.291c1.072-0.684,2.109-1.517,3.122-2.499
					c1.553,0.088,3.15,0.183,4.785,0.264C224.776,253.992,223.781,254.84,222.753,255.539z M228.329,250.079
					c-1.607-0.087-3.179-0.168-4.714-0.254c0.645-0.806,1.29-1.676,1.924-2.592c1.525,0.093,3.087,0.174,4.686,0.259
					C229.601,248.409,228.966,249.271,228.329,250.079z M232.13,244.508c-1.591-0.075-3.145-0.155-4.662-0.238
					c0.515-0.842,1.024-1.713,1.528-2.611c1.517,0.083,3.071,0.163,4.652,0.245C233.144,242.803,232.644,243.674,232.13,244.508z
					 M235.266,238.908c-1.582-0.074-3.127-0.152-4.645-0.227c0.462-0.859,0.908-1.729,1.358-2.625
					c1.508,0.082,3.044,0.159,4.626,0.233C236.166,237.178,235.718,238.057,235.266,238.908z M238.059,233.297
					c-1.573-0.073-3.118-0.151-4.629-0.215c0.418-0.865,0.839-1.747,1.252-2.64c1.509,0.073,3.056,0.142,4.627,0.224
					C238.888,231.558,238.476,232.441,238.059,233.297z M240.674,227.671c-1.573-0.073-3.11-0.141-4.621-0.205
					c0.401-0.867,0.794-1.754,1.197-2.639c1.511,0.064,3.048,0.132,4.62,0.214C241.467,225.926,241.074,226.804,240.674,227.671z
					 M243.199,222.041c-1.573-0.073-3.111-0.132-4.625-0.179c0.384-0.879,0.778-1.765,1.163-2.652
					c1.512,0.055,3.049,0.123,4.622,0.196C243.974,220.294,243.581,221.171,243.199,222.041z M245.677,216.414
					c-1.583-0.065-3.122-0.115-4.636-0.162c0.393-0.877,0.787-1.764,1.182-2.659c1.513,0.046,3.061,0.107,4.634,0.18
					C246.463,214.659,246.07,215.536,245.677,216.414z M248.192,210.792c-1.584-0.056-3.133-0.108-4.658-0.138
					c0.403-0.885,0.806-1.77,1.209-2.655c1.514,0.038,3.063,0.089,4.646,0.154C248.987,209.038,248.585,209.914,248.192,210.792z
					 M250.76,205.177c-1.586-0.048-3.144-0.091-4.67-0.112c0.412-0.884,0.833-1.775,1.255-2.667c1.525,0.03,3.083,0.074,4.667,0.13
					C251.592,203.411,251.172,204.293,250.76,205.177z M253.434,199.577c-1.594-0.049-3.164-0.076-4.7-0.089
					c0.441-0.898,0.881-1.787,1.329-2.674c1.535,0.022,3.095,0.057,4.689,0.106C254.305,197.798,253.865,198.687,253.434,199.577z
					 M255.905,194.663c-1.617-0.016-3.198-0.026-4.748-0.006c0.459-0.895,0.927-1.798,1.404-2.691
					c1.547-0.003,3.129,0.008,4.744,0.032C256.829,192.883,256.362,193.777,255.905,194.663z M258.505,189.794
					c-1.637,0-3.241,0.022-4.802,0.059c0.498-0.917,1.003-1.824,1.525-2.72c1.567-0.018,3.161-0.033,4.798-0.024
					C259.513,187.998,259.009,188.896,258.505,189.794z M261.299,184.962c-1.668,0.023-3.302,0.068-4.893,0.128
					c0.553-0.927,1.106-1.846,1.674-2.753c1.589-0.042,3.222-0.079,4.888-0.093C262.401,183.142,261.843,184.042,261.299,184.962z
					 M264.328,180.134c-1.698,0.046-3.354,0.115-4.966,0.199c0.6-0.939,1.217-1.867,1.849-2.775c1.628-0.064,3.292-0.123,4.988-0.16
					C265.559,178.297,264.936,179.205,264.328,180.134z M267.689,175.326c-1.738,0.076-3.433,0.167-5.084,0.265
					c0.685-0.964,1.393-1.897,2.116-2.81c1.66-0.096,3.37-0.167,5.106-0.225C269.096,173.458,268.389,174.382,267.689,175.326z
					 M271.513,170.5c-1.795,0.095-3.538,0.207-5.229,0.335c0.805-0.983,1.634-1.936,2.477-2.868
					c1.715-0.106,3.474-0.198,5.277-0.283C273.179,168.596,272.344,169.529,271.513,170.5z M276.04,165.635
					c-1.87,0.112-3.688,0.241-5.445,0.387c0.991-1.012,2.002-1.984,3.045-2.917c1.791-0.132,3.633-0.239,5.518-0.331
					C278.091,163.685,277.054,164.645,276.04,165.635z M281.735,160.689c-0.009-0.001-0.01,0.008-0.01,0.008
					c-1.979,0.115-3.908,0.264-5.776,0.431c1.324-1.074,2.676-2.081,4.079-3.008c0.009,0.001,0.009,0.001,0.009,0.001
					c1.928-0.14,3.916-0.254,5.947-0.353C284.522,158.659,283.102,159.638,281.735,160.689z"/>
				<g style="opacity:0.4;">
					<path d="M215.507,225.858c-1.155,2.416-2.282,4.646-3.379,6.715c6.658,0.399,13.133,0.61,19.06,0.704
						c1.004-1.964,2.015-3.989,3.054-6.062c1.398-2.788,2.883-6.091,4.506-9.75c-6.908-0.115-13.375-0.151-19.109-0.143
						C218.195,220.257,216.815,223.121,215.507,225.858z"/>
					<path d="M231.025,195.865c5.46-0.301,11.5-0.492,17.99-0.488c2.487-4.863,5.253-9.826,8.354-14.692
						c-6.086,0.2-11.875,0.519-17.156,0.888C236.972,186.102,233.906,190.93,231.025,195.865z"/>
					<path d="M198.859,252.425c5.351,0.554,11.517,0.902,18.439,0.854c4.734-3.897,8.424-9.679,12.039-16.451
						c-5.986-0.117-12.471-0.355-19.108-0.783C205.698,244.085,201.787,249.221,198.859,252.425z"/>
					<path d="M221.421,213.738c5.729,0.001,12.111,0.046,18.903,0.169c2.049-4.626,4.321-9.696,6.898-14.946
						c-6.662,0.033-12.819,0.27-18.314,0.613C226.247,204.314,223.753,209.091,221.421,213.738z"/>
					<path d="M195.478,255.72c-1.488,1.257-2.316,1.672-2.316,1.672c7.514,1.822,13.383,1.453,18.223-0.534
						C205.429,256.716,200.112,256.292,195.478,255.72z"/>
					<path d="M283.202,154.731c-2.894,1.499-6.005,3.457-9.144,6.008c-5.547,0.21-10.648,0.598-15.304,1.103
						c2.194-1.605,4.441-3.004,6.751-4.141C268.868,156.991,275.199,155.759,283.202,154.731z"/>
					<path d="M243.016,177.796c5.224-0.332,10.874-0.607,16.765-0.767c1.587-2.326,3.254-4.619,5.016-6.852
						c1.645-2.085,3.329-3.944,5.022-5.624c-6.007,0.353-11.441,0.922-16.298,1.6C249.841,169.539,246.339,173.486,243.016,177.796z
						"/>
				</g>
			</g>
			<path style="fill:#263238;" d="M216.431,259.994c-1.468-0.074-2.996-0.421-4.594-1.068
				c-21.71-8.795-32.656-46.709-18.208-102.914c9.089-35.358,26.014-47.054,26.014-47.054c-21.665-8.064-35.505-4.912-35.505-4.912
				s-16.925,11.696-26.014,47.054c-14.448,56.205-3.502,94.119,18.208,102.914l1.018,0.374c0,0,3.005,1.13,7.785,2.407
				c-0.001,0-0.003-0.001-0.004-0.001c0.004,0.001,0.008,0.002,0.012,0.003c7.568,2.022,19.595,4.411,31.284,3.279L216.431,259.994z
				 M185.709,225.151c-1.177-0.054-2.342-0.134-3.489-0.211c-0.202-0.896-0.382-1.817-0.543-2.744
				c1.155,0.087,2.32,0.167,3.503,0.241C185.342,223.354,185.524,224.266,185.709,225.151z M184.273,216.178
				c0.099,0.918,0.218,1.821,0.339,2.715c-1.181-0.091-2.353-0.19-3.523-0.297c-0.129-0.895-0.247-1.807-0.347-2.725
				C181.913,215.978,183.092,216.087,184.273,216.178z M183.993,191.001c-0.078,0.894-0.139,1.79-0.19,2.678
				c-1.147-0.141-2.338-0.296-3.555-0.456c0.05-0.888,0.111-1.785,0.191-2.687C181.656,190.696,182.847,190.852,183.993,191.001z
				 M180.759,186.918c0.077-0.885,0.172-1.767,0.278-2.666c1.226,0.161,2.415,0.325,3.552,0.482
				c-0.106,0.899-0.202,1.79-0.278,2.666C183.164,187.251,181.984,187.087,180.759,186.918z M183.63,197.283
				c-0.035,0.909-0.06,1.81-0.075,2.703c-1.149-0.132-2.34-0.279-3.549-0.437c0.015-0.893,0.04-1.795,0.076-2.703
				C181.29,197.005,182.473,197.15,183.63,197.283z M183.537,203.584c0.009,0.915,0.02,1.821,0.049,2.72
				c-1.167-0.125-2.343-0.261-3.545-0.4l-0.009-0.001c-0.022-0.889-0.041-1.797-0.049-2.721
				C181.185,203.322,182.369,203.459,183.537,203.584z M183.742,209.881c0.045,0.92,0.109,1.824,0.175,2.72
				c-1.17-0.108-2.348-0.225-3.533-0.353c-0.075-0.897-0.139-1.81-0.192-2.731C181.385,209.654,182.563,209.772,183.742,209.881z
				 M211.35,108.917c1.001,0.283,2.026,0.588,3.067,0.913c-0.607,0.531-1.366,1.24-2.24,2.132c-1.077-0.321-2.122-0.619-3.15-0.897
				C209.97,110.128,210.757,109.414,211.35,108.917z M207.238,112.943c1.047,0.281,2.11,0.572,3.196,0.894
				c-0.61,0.684-1.247,1.429-1.914,2.259c-1.105-0.316-2.187-0.601-3.235-0.873C205.962,114.386,206.628,113.628,207.238,112.943z
				 M203.73,117.18c1.076,0.266,2.167,0.553,3.282,0.861c-0.553,0.729-1.114,1.51-1.689,2.335c-1.126-0.3-2.227-0.579-3.303-0.837
				C202.607,118.698,203.176,117.917,203.73,117.18z M200.665,121.55c1.086,0.259,2.196,0.539,3.321,0.839
				c-0.495,0.764-0.993,1.554-1.497,2.389c-1.135-0.293-2.256-0.565-3.352-0.817C199.652,123.119,200.162,122.312,200.665,121.55z
				 M197.929,126.029c1.096,0.251,2.225,0.525,3.36,0.818c-0.443,0.78-0.89,1.596-1.332,2.439c-1.144-0.294-2.274-0.559-3.38-0.811
				C197.02,127.631,197.477,126.816,197.929,126.029z M195.491,130.576c1.115,0.245,2.244,0.519,3.399,0.796
				c-0.4,0.804-0.795,1.627-1.194,2.485c-1.154-0.286-2.293-0.552-3.407-0.806C194.687,132.202,195.092,131.371,195.491,130.576z
				 M193.315,135.187c1.123,0.255,2.262,0.521,3.416,0.807c-0.356,0.81-0.708,1.648-1.061,2.504c-1.154-0.286-2.302-0.554-3.426-0.8
				C192.598,136.842,192.958,136.006,193.315,135.187z M190.925,141.025c1.153,0.232,2.303,0.481,3.461,0.741
				c-0.314,0.834-0.621,1.678-0.923,2.55c-1.158-0.26-2.317-0.51-3.463-0.732C190.303,142.712,190.619,141.86,190.925,141.025z
				 M188.851,146.989c1.173,0.217,2.336,0.441,3.488,0.681c-0.27,0.84-0.533,1.699-0.799,2.576c-1.153-0.232-2.317-0.447-3.49-0.664
				C188.308,148.695,188.571,147.836,188.851,146.989z M186.526,155.034c0.174-0.672,0.346-1.327,0.527-1.98
				c1.193,0.201,2.368,0.409,3.513,0.631c-0.165,0.601-0.332,1.221-0.49,1.841c-0.062,0.254-0.135,0.515-0.197,0.769
				c-1.146-0.213-2.321-0.42-3.514-0.622C186.413,155.462,186.47,155.243,186.526,155.034z M185.496,159.215
				c1.203,0.194,2.38,0.384,3.53,0.57c-0.213,0.884-0.416,1.761-0.609,2.638c-1.149-0.195-2.326-0.385-3.539-0.571
				C185.07,160.984,185.283,160.1,185.496,159.215z M184.103,165.427c1.215,0.177,2.402,0.359,3.544,0.536
				c-0.195,0.887-0.371,1.767-0.537,2.639c-1.143-0.176-2.331-0.35-3.545-0.527C183.732,167.194,183.907,166.314,184.103,165.427z
				 M182.885,171.681c1.223,0.178,2.403,0.351,3.547,0.518c-0.168,0.89-0.318,1.774-0.466,2.649
				c-1.135-0.166-2.314-0.338-3.539-0.508C182.567,173.455,182.716,172.571,182.885,171.681z M181.85,177.978l3.55,0.491
				c-0.133,0.895-0.256,1.783-0.377,2.662l-3.55-0.491C181.586,179.76,181.718,178.873,181.85,177.978z M185.63,104.499
				c0.631,0.015,1.287,0.051,1.977,0.093c-0.282,0.205-1.373,1.031-2.993,2.607c-0.712-0.017-1.381-0.019-2.015-0.016
				C184.076,105.723,185.155,104.859,185.63,104.499z M180.962,108.883c0.613,0.013,1.261,0.039,1.944,0.07
				c-0.721,0.769-1.503,1.646-2.32,2.646c-0.705-0.007-1.355-0.016-1.971-0.01C179.445,110.563,180.228,109.677,180.962,108.883z
				 M177.27,113.275c0.603,0.02,1.233,0.044,1.907,0.074c-0.629,0.818-1.276,1.705-1.941,2.653c-0.684-0.022-1.325-0.03-1.922-0.031
				C175.981,115.005,176.639,114.11,177.27,113.275z M174.167,117.658c0.593,0.028,1.214,0.05,1.878,0.088
				c-0.55,0.838-1.115,1.718-1.678,2.644c-0.674-0.03-1.304-0.054-1.882-0.061C173.049,119.394,173.615,118.504,174.167,117.658z
				 M171.459,122.059c0.583,0.036,1.193,0.075,1.846,0.129c-0.485,0.828-0.967,1.693-1.444,2.595
				c-0.654-0.045-1.273-0.085-1.848-0.111C170.49,123.77,170.981,122.898,171.459,122.059z M169.087,126.453
				c0.573,0.043,1.18,0.1,1.824,0.153c-0.432,0.836-0.859,1.699-1.272,2.592c-0.644-0.053-1.252-0.101-1.826-0.144
				C168.236,128.162,168.655,127.289,169.087,126.453z M166.964,130.881c0.57,0.061,1.178,0.118,1.811,0.187
				c-0.378,0.834-0.759,1.695-1.127,2.585c-0.633-0.07-1.231-0.125-1.803-0.177C166.213,132.586,166.596,131.716,166.964,130.881z
				 M164.424,137.015c0.57,0.061,1.167,0.125,1.8,0.195c-0.326,0.85-0.644,1.711-0.956,2.6c-0.633-0.07-1.231-0.125-1.802-0.186
				C163.779,138.735,164.107,137.867,164.424,137.015z M162.271,143.167c0.57,0.061,1.166,0.134,1.79,0.202
				c-0.28,0.848-0.555,1.723-0.813,2.61c-0.624-0.068-1.221-0.133-1.791-0.193C161.716,144.89,161.989,144.023,162.271,143.167z
				 M159.899,151.351c0.175-0.681,0.349-1.345,0.54-2.006c0.57,0.061,1.157,0.133,1.781,0.201c-0.183,0.671-0.369,1.36-0.546,2.05
				c-0.054,0.192-0.1,0.393-0.145,0.586c-0.624-0.068-1.219-0.142-1.789-0.211C159.796,151.77,159.843,151.56,159.899,151.351z
				 M158.866,155.549c0.569,0.07,1.165,0.143,1.779,0.219c-0.213,0.884-0.426,1.768-0.618,2.637
				c-0.614-0.076-1.21-0.149-1.779-0.219C158.44,157.318,158.644,156.432,158.866,155.549z M157.463,161.769
				c0.577,0.08,1.173,0.153,1.786,0.229c-0.195,0.887-0.371,1.767-0.547,2.647c-0.614-0.076-1.208-0.158-1.778-0.228
				C157.092,163.536,157.277,162.656,157.463,161.769z M156.245,168.022c0.578,0.071,1.164,0.152,1.776,0.237
				c-0.159,0.892-0.318,1.774-0.458,2.659l-1.775-0.246C155.927,169.797,156.086,168.914,156.245,168.022z M155.223,174.294
				l1.775,0.245c-0.142,0.894-0.264,1.782-0.386,2.66l-1.775-0.246C154.959,176.076,155.082,175.189,155.223,174.294z
				 M154.412,180.487c0.576,0.089,1.17,0.171,1.774,0.254c-0.115,0.898-0.202,1.79-0.288,2.674
				c-0.612-0.085-1.198-0.166-1.774-0.254C154.21,182.277,154.297,181.385,154.412,180.487z M153.815,186.7
				c0.565,0.096,1.16,0.179,1.771,0.272c-0.079,0.903-0.14,1.799-0.191,2.687c-0.612-0.085-1.206-0.176-1.782-0.265
				C153.673,188.508,153.734,187.611,153.815,186.7z M153.449,192.945c0.565,0.096,1.159,0.187,1.779,0.282
				c-0.046,0.916-0.072,1.826-0.087,2.72c-0.61-0.102-1.204-0.194-1.77-0.281C153.386,194.773,153.412,193.863,153.449,192.945z
				 M153.348,199.227c0.566,0.096,1.158,0.196,1.777,0.3c-0.001,0.923,0.018,1.83,0.047,2.738c-0.619-0.104-1.211-0.204-1.777-0.3
				C153.367,201.057,153.348,200.149,153.348,199.227z M153.539,205.567c0.566,0.096,1.156,0.205,1.784,0.31
				c0.051,0.939,0.114,1.861,0.177,2.774c-0.618-0.113-1.21-0.213-1.774-0.318C153.653,207.419,153.591,206.497,153.539,205.567z
				 M154.08,211.983c0.555,0.104,1.155,0.214,1.782,0.328c0.112,0.956,0.228,1.886,0.362,2.809c-0.625-0.123-1.225-0.233-1.79-0.338
				C154.3,213.859,154.185,212.929,154.08,211.983z M155.034,218.492c0.563,0.114,1.162,0.233,1.796,0.357
				c0.174,0.965,0.368,1.914,0.566,2.837c-0.627-0.114-1.227-0.224-1.798-0.339C155.401,220.415,155.207,219.466,155.034,218.492z
				 M156.022,223.188c0.561,0.132,1.173,0.28,1.823,0.424c0.234,0.991,0.497,1.968,0.763,2.919
				c-0.632-0.142-1.247-0.272-1.816-0.405C156.517,225.165,156.263,224.189,156.022,223.188z M157.31,227.87
				c0.559,0.149,1.177,0.316,1.842,0.481c0.327,1.04,0.676,2.047,1.038,3.029c-0.656-0.163-1.285-0.322-1.861-0.474
				C157.966,229.924,157.627,228.909,157.31,227.87z M158.972,232.596c0.556,0.168,1.191,0.346,1.888,0.542
				c0.446,1.093,0.906,2.152,1.398,3.169c-0.671-0.183-1.308-0.353-1.908-0.526C159.867,234.755,159.407,233.696,158.972,232.596z
				 M163.092,240.864c-0.674-1.079-1.321-2.218-1.925-3.414c0.58,0.189,1.24,0.389,1.96,0.606c0.614,1.188,1.271,2.32,1.954,3.4
				C164.378,241.25,163.717,241.059,163.092,240.864z M164.211,242.583c0.623,0.204,1.316,0.426,2.071,0.657
				c0.952,1.353,1.963,2.614,3.025,3.765c-0.739-0.22-1.459-0.437-2.136-0.648C166.138,245.202,165.145,243.943,164.211,242.583z
				 M176.008,253.297c-2.477-1.256-4.789-2.915-6.929-4.966c0.718,0.235,1.48,0.485,2.294,0.743
				c2.329,2.122,4.864,3.812,7.572,5.028C177.933,253.835,176.957,253.564,176.008,253.297z M182.827,227.547
				c1.151,0.114,2.315,0.202,3.499,0.276c0.232,0.937,0.476,1.857,0.732,2.752c-1.175-0.072-2.339-0.161-3.483-0.256
				C183.31,229.414,183.058,228.492,182.827,227.547z M184.381,232.918c1.159,0.124,2.32,0.23,3.501,0.322
				c0.312,0.948,0.637,1.87,0.974,2.767c-1.165-0.08-2.327-0.177-3.47-0.29C185.033,234.808,184.701,233.876,184.381,232.918z
				 M186.457,238.316c1.158,0.133,2.325,0.258,3.495,0.366l0.009,0.001c0.419,0.962,0.859,1.901,1.314,2.796
				c-1.164-0.089-2.316-0.194-3.466-0.317C187.338,240.247,186.891,239.299,186.457,238.316z M189.256,243.778
				c1.155,0.151,2.322,0.285,3.492,0.392c0.595,0.996,1.205,1.949,1.848,2.861c-1.147-0.077-2.291-0.181-3.43-0.312
				C190.498,245.786,189.865,244.803,189.256,243.778z M196.146,252.429c-1.011-0.927-1.992-1.949-2.925-3.046
				c1.155,0.151,2.314,0.275,3.466,0.38c0.878,1.044,1.792,2.021,2.754,2.914C198.345,252.615,197.244,252.535,196.146,252.429z
				 M205.881,258.298l-0.009-0.001c-0.463-0.118-0.853-0.245-1.136-0.356c-1.73-0.701-3.39-1.582-4.97-2.65
				c1.071,0.103,2.137,0.178,3.186,0.242c1.576,1.095,3.232,2.012,4.958,2.739C207.247,258.297,206.567,258.311,205.881,258.298z"/>
			<path style="opacity:0.2;fill:#FAFAFA;" d="M216.431,259.994c-1.468-0.074-2.996-0.421-4.594-1.068
				c-21.71-8.795-32.656-46.709-18.208-102.914c9.089-35.358,26.014-47.054,26.014-47.054c-21.665-8.064-35.505-4.912-35.505-4.912
				s-16.925,11.696-26.014,47.054c-14.448,56.205-3.502,94.119,18.208,102.914l1.018,0.374c0,0,3.005,1.13,7.785,2.407
				c-0.001,0-0.003-0.001-0.004-0.001c0.004,0.001,0.008,0.002,0.012,0.003c7.568,2.022,19.595,4.411,31.284,3.279L216.431,259.994z
				 M185.709,225.151c-1.177-0.054-2.342-0.134-3.489-0.211c-0.202-0.896-0.382-1.817-0.543-2.744
				c1.155,0.087,2.32,0.167,3.503,0.241C185.342,223.354,185.524,224.266,185.709,225.151z M184.273,216.178
				c0.099,0.918,0.218,1.821,0.339,2.715c-1.181-0.091-2.353-0.19-3.523-0.297c-0.129-0.895-0.247-1.807-0.347-2.725
				C181.913,215.978,183.092,216.087,184.273,216.178z M183.993,191.001c-0.078,0.894-0.139,1.79-0.19,2.678
				c-1.147-0.141-2.338-0.296-3.555-0.456c0.05-0.888,0.111-1.785,0.191-2.687C181.656,190.696,182.847,190.852,183.993,191.001z
				 M180.759,186.918c0.077-0.885,0.172-1.767,0.278-2.666c1.226,0.161,2.415,0.325,3.552,0.482
				c-0.106,0.899-0.202,1.79-0.278,2.666C183.164,187.251,181.984,187.087,180.759,186.918z M183.63,197.283
				c-0.035,0.909-0.06,1.81-0.075,2.703c-1.149-0.132-2.34-0.279-3.549-0.437c0.015-0.893,0.04-1.795,0.076-2.703
				C181.29,197.005,182.473,197.15,183.63,197.283z M183.537,203.584c0.009,0.915,0.02,1.821,0.049,2.72
				c-1.167-0.125-2.343-0.261-3.545-0.4l-0.009-0.001c-0.022-0.889-0.041-1.797-0.049-2.721
				C181.185,203.322,182.369,203.459,183.537,203.584z M183.742,209.881c0.045,0.92,0.109,1.824,0.175,2.72
				c-1.17-0.108-2.348-0.225-3.533-0.353c-0.075-0.897-0.139-1.81-0.192-2.731C181.385,209.654,182.563,209.772,183.742,209.881z
				 M211.35,108.917c1.001,0.283,2.026,0.588,3.067,0.913c-0.607,0.531-1.366,1.24-2.24,2.132c-1.077-0.321-2.122-0.619-3.15-0.897
				C209.97,110.128,210.757,109.414,211.35,108.917z M207.238,112.943c1.047,0.281,2.11,0.572,3.196,0.894
				c-0.61,0.684-1.247,1.429-1.914,2.259c-1.105-0.316-2.187-0.601-3.235-0.873C205.962,114.386,206.628,113.628,207.238,112.943z
				 M203.73,117.18c1.076,0.266,2.167,0.553,3.282,0.861c-0.553,0.729-1.114,1.51-1.689,2.335c-1.126-0.3-2.227-0.579-3.303-0.837
				C202.607,118.698,203.176,117.917,203.73,117.18z M200.665,121.55c1.086,0.259,2.196,0.539,3.321,0.839
				c-0.495,0.764-0.993,1.554-1.497,2.389c-1.135-0.293-2.256-0.565-3.352-0.817C199.652,123.119,200.162,122.312,200.665,121.55z
				 M197.929,126.029c1.096,0.251,2.225,0.525,3.36,0.818c-0.443,0.78-0.89,1.596-1.332,2.439c-1.144-0.294-2.274-0.559-3.38-0.811
				C197.02,127.631,197.477,126.816,197.929,126.029z M195.491,130.576c1.115,0.245,2.244,0.519,3.399,0.796
				c-0.4,0.804-0.795,1.627-1.194,2.485c-1.154-0.286-2.293-0.552-3.407-0.806C194.687,132.202,195.092,131.371,195.491,130.576z
				 M193.315,135.187c1.123,0.255,2.262,0.521,3.416,0.807c-0.356,0.81-0.708,1.648-1.061,2.504c-1.154-0.286-2.302-0.554-3.426-0.8
				C192.598,136.842,192.958,136.006,193.315,135.187z M190.925,141.025c1.153,0.232,2.303,0.481,3.461,0.741
				c-0.314,0.834-0.621,1.678-0.923,2.55c-1.158-0.26-2.317-0.51-3.463-0.732C190.303,142.712,190.619,141.86,190.925,141.025z
				 M188.851,146.989c1.173,0.217,2.336,0.441,3.488,0.681c-0.27,0.84-0.533,1.699-0.799,2.576c-1.153-0.232-2.317-0.447-3.49-0.664
				C188.308,148.695,188.571,147.836,188.851,146.989z M186.526,155.034c0.174-0.672,0.346-1.327,0.527-1.98
				c1.193,0.201,2.368,0.409,3.513,0.631c-0.165,0.601-0.332,1.221-0.49,1.841c-0.062,0.254-0.135,0.515-0.197,0.769
				c-1.146-0.213-2.321-0.42-3.514-0.622C186.413,155.462,186.47,155.243,186.526,155.034z M185.496,159.215
				c1.203,0.194,2.38,0.384,3.53,0.57c-0.213,0.884-0.416,1.761-0.609,2.638c-1.149-0.195-2.326-0.385-3.539-0.571
				C185.07,160.984,185.283,160.1,185.496,159.215z M184.103,165.427c1.215,0.177,2.402,0.359,3.544,0.536
				c-0.195,0.887-0.371,1.767-0.537,2.639c-1.143-0.176-2.331-0.35-3.545-0.527C183.732,167.194,183.907,166.314,184.103,165.427z
				 M182.885,171.681c1.223,0.178,2.403,0.351,3.547,0.518c-0.168,0.89-0.318,1.774-0.466,2.649
				c-1.135-0.166-2.314-0.338-3.539-0.508C182.567,173.455,182.716,172.571,182.885,171.681z M181.85,177.978l3.55,0.491
				c-0.133,0.895-0.256,1.783-0.377,2.662l-3.55-0.491C181.586,179.76,181.718,178.873,181.85,177.978z M185.63,104.499
				c0.631,0.015,1.287,0.051,1.977,0.093c-0.282,0.205-1.373,1.031-2.993,2.607c-0.712-0.017-1.381-0.019-2.015-0.016
				C184.076,105.723,185.155,104.859,185.63,104.499z M180.962,108.883c0.613,0.013,1.261,0.039,1.944,0.07
				c-0.721,0.769-1.503,1.646-2.32,2.646c-0.705-0.007-1.355-0.016-1.971-0.01C179.445,110.563,180.228,109.677,180.962,108.883z
				 M177.27,113.275c0.603,0.02,1.233,0.044,1.907,0.074c-0.629,0.818-1.276,1.705-1.941,2.653c-0.684-0.022-1.325-0.03-1.922-0.031
				C175.981,115.005,176.639,114.11,177.27,113.275z M174.167,117.658c0.593,0.028,1.214,0.05,1.878,0.088
				c-0.55,0.838-1.115,1.718-1.678,2.644c-0.674-0.03-1.304-0.054-1.882-0.061C173.049,119.394,173.615,118.504,174.167,117.658z
				 M171.459,122.059c0.583,0.036,1.193,0.075,1.846,0.129c-0.485,0.828-0.967,1.693-1.444,2.595
				c-0.654-0.045-1.273-0.085-1.848-0.111C170.49,123.77,170.981,122.898,171.459,122.059z M169.087,126.453
				c0.573,0.043,1.18,0.1,1.824,0.153c-0.432,0.836-0.859,1.699-1.272,2.592c-0.644-0.053-1.252-0.101-1.826-0.144
				C168.236,128.162,168.655,127.289,169.087,126.453z M166.964,130.881c0.57,0.061,1.178,0.118,1.811,0.187
				c-0.378,0.834-0.759,1.695-1.127,2.585c-0.633-0.07-1.231-0.125-1.803-0.177C166.213,132.586,166.596,131.716,166.964,130.881z
				 M164.424,137.015c0.57,0.061,1.167,0.125,1.8,0.195c-0.326,0.85-0.644,1.711-0.956,2.6c-0.633-0.07-1.231-0.125-1.802-0.186
				C163.779,138.735,164.107,137.867,164.424,137.015z M162.271,143.167c0.57,0.061,1.166,0.134,1.79,0.202
				c-0.28,0.848-0.555,1.723-0.813,2.61c-0.624-0.068-1.221-0.133-1.791-0.193C161.716,144.89,161.989,144.023,162.271,143.167z
				 M159.899,151.351c0.175-0.681,0.349-1.345,0.54-2.006c0.57,0.061,1.157,0.133,1.781,0.201c-0.183,0.671-0.369,1.36-0.546,2.05
				c-0.054,0.192-0.1,0.393-0.145,0.586c-0.624-0.068-1.219-0.142-1.789-0.211C159.796,151.77,159.843,151.56,159.899,151.351z
				 M158.866,155.549c0.569,0.07,1.165,0.143,1.779,0.219c-0.213,0.884-0.426,1.768-0.618,2.637
				c-0.614-0.076-1.21-0.149-1.779-0.219C158.44,157.318,158.644,156.432,158.866,155.549z M157.463,161.769
				c0.577,0.08,1.173,0.153,1.786,0.229c-0.195,0.887-0.371,1.767-0.547,2.647c-0.614-0.076-1.208-0.158-1.778-0.228
				C157.092,163.536,157.277,162.656,157.463,161.769z M156.245,168.022c0.578,0.071,1.164,0.152,1.776,0.237
				c-0.159,0.892-0.318,1.774-0.458,2.659l-1.775-0.246C155.927,169.797,156.086,168.914,156.245,168.022z M155.223,174.294
				l1.775,0.245c-0.142,0.894-0.264,1.782-0.386,2.66l-1.775-0.246C154.959,176.076,155.082,175.189,155.223,174.294z
				 M154.412,180.487c0.576,0.089,1.17,0.171,1.774,0.254c-0.115,0.898-0.202,1.79-0.288,2.674
				c-0.612-0.085-1.198-0.166-1.774-0.254C154.21,182.277,154.297,181.385,154.412,180.487z M153.815,186.7
				c0.565,0.096,1.16,0.179,1.771,0.272c-0.079,0.903-0.14,1.799-0.191,2.687c-0.612-0.085-1.206-0.176-1.782-0.265
				C153.673,188.508,153.734,187.611,153.815,186.7z M153.449,192.945c0.565,0.096,1.159,0.187,1.779,0.282
				c-0.046,0.916-0.072,1.826-0.087,2.72c-0.61-0.102-1.204-0.194-1.77-0.281C153.386,194.773,153.412,193.863,153.449,192.945z
				 M153.348,199.227c0.566,0.096,1.158,0.196,1.777,0.3c-0.001,0.923,0.018,1.83,0.047,2.738c-0.619-0.104-1.211-0.204-1.777-0.3
				C153.367,201.057,153.348,200.149,153.348,199.227z M153.539,205.567c0.566,0.096,1.156,0.205,1.784,0.31
				c0.051,0.939,0.114,1.861,0.177,2.774c-0.618-0.113-1.21-0.213-1.774-0.318C153.653,207.419,153.591,206.497,153.539,205.567z
				 M154.08,211.983c0.555,0.104,1.155,0.214,1.782,0.328c0.112,0.956,0.228,1.886,0.362,2.809c-0.625-0.123-1.225-0.233-1.79-0.338
				C154.3,213.859,154.185,212.929,154.08,211.983z M155.034,218.492c0.563,0.114,1.162,0.233,1.796,0.357
				c0.174,0.965,0.368,1.914,0.566,2.837c-0.627-0.114-1.227-0.224-1.798-0.339C155.401,220.415,155.207,219.466,155.034,218.492z
				 M156.022,223.188c0.561,0.132,1.173,0.28,1.823,0.424c0.234,0.991,0.497,1.968,0.763,2.919
				c-0.632-0.142-1.247-0.272-1.816-0.405C156.517,225.165,156.263,224.189,156.022,223.188z M157.31,227.87
				c0.559,0.149,1.177,0.316,1.842,0.481c0.327,1.04,0.676,2.047,1.038,3.029c-0.656-0.163-1.285-0.322-1.861-0.474
				C157.966,229.924,157.627,228.909,157.31,227.87z M158.972,232.596c0.556,0.168,1.191,0.346,1.888,0.542
				c0.446,1.093,0.906,2.152,1.398,3.169c-0.671-0.183-1.308-0.353-1.908-0.526C159.867,234.755,159.407,233.696,158.972,232.596z
				 M163.092,240.864c-0.674-1.079-1.321-2.218-1.925-3.414c0.58,0.189,1.24,0.389,1.96,0.606c0.614,1.188,1.271,2.32,1.954,3.4
				C164.378,241.25,163.717,241.059,163.092,240.864z M164.211,242.583c0.623,0.204,1.316,0.426,2.071,0.657
				c0.952,1.353,1.963,2.614,3.025,3.765c-0.739-0.22-1.459-0.437-2.136-0.648C166.138,245.202,165.145,243.943,164.211,242.583z
				 M176.008,253.297c-2.477-1.256-4.789-2.915-6.929-4.966c0.718,0.235,1.48,0.485,2.294,0.743
				c2.329,2.122,4.864,3.812,7.572,5.028C177.933,253.835,176.957,253.564,176.008,253.297z M182.827,227.547
				c1.151,0.114,2.315,0.202,3.499,0.276c0.232,0.937,0.476,1.857,0.732,2.752c-1.175-0.072-2.339-0.161-3.483-0.256
				C183.31,229.414,183.058,228.492,182.827,227.547z M184.381,232.918c1.159,0.124,2.32,0.23,3.501,0.322
				c0.312,0.948,0.637,1.87,0.974,2.767c-1.165-0.08-2.327-0.177-3.47-0.29C185.033,234.808,184.701,233.876,184.381,232.918z
				 M186.457,238.316c1.158,0.133,2.325,0.258,3.495,0.366l0.009,0.001c0.419,0.962,0.859,1.901,1.314,2.796
				c-1.164-0.089-2.316-0.194-3.466-0.317C187.338,240.247,186.891,239.299,186.457,238.316z M189.256,243.778
				c1.155,0.151,2.322,0.285,3.492,0.392c0.595,0.996,1.205,1.949,1.848,2.861c-1.147-0.077-2.291-0.181-3.43-0.312
				C190.498,245.786,189.865,244.803,189.256,243.778z M196.146,252.429c-1.011-0.927-1.992-1.949-2.925-3.046
				c1.155,0.151,2.314,0.275,3.466,0.38c0.878,1.044,1.792,2.021,2.754,2.914C198.345,252.615,197.244,252.535,196.146,252.429z
				 M205.881,258.298l-0.009-0.001c-0.463-0.118-0.853-0.245-1.136-0.356c-1.73-0.701-3.39-1.582-4.97-2.65
				c1.071,0.103,2.137,0.178,3.186,0.242c1.576,1.095,3.232,2.012,4.958,2.739C207.247,258.297,206.567,258.311,205.881,258.298z"/>
			<g>
				<path style="fill:#263238;" d="M187.464,145.41c2.174-6.285,4.559-11.781,7.019-16.582c-8.61-1.789-15.372-2.741-20.546-3.205
					c-2.531,4.611-4.991,9.923-7.24,16.025C172.248,142.346,179.091,143.513,187.464,145.41z"/>
				<path style="fill:#263238;" d="M165.465,145.128c-1.788,5.282-3.414,11.112-4.797,17.544c6.032,0.9,13.073,2.149,21.079,3.87
					c1.322-6.463,2.872-12.35,4.581-17.704C177.829,146.93,170.943,145.785,165.465,145.128z"/>
				<path style="fill:#263238;" d="M179.126,182.567c0.547-4.382,1.198-8.543,1.932-12.503c-8.018-1.719-15.076-2.96-21.112-3.852
					c-0.872,4.485-1.63,9.24-2.244,14.295c-0.173,1.419-0.319,2.803-0.455,4.173c7.515,1.568,14.874,2.788,21.266,3.711
					C178.683,186.49,178.877,184.56,179.126,182.567z"/>
				<path style="fill:#263238;" d="M196.247,125.523c3.699-6.65,7.491-11.802,10.934-15.726c-7.979-1.668-14.378-2.618-19.411-3.127
					c-3.656,3.703-7.798,8.757-11.859,15.515C181.208,122.732,187.91,123.749,196.247,125.523z"/>
				<path style="fill:#263238;" d="M183.675,235.016c-6.932-1.096-14.628-2.508-22.268-4.286
					c3.485,9.101,8.528,15.562,14.199,20.165c7.126,1.436,14.05,2.563,20.064,3.419
					C191.262,249.621,186.948,243.347,183.675,235.016z"/>
				<path style="fill:#263238;" d="M182.301,231.166c-1.726-5.247-3.041-11.228-3.761-18.035c-6.756-1.062-14.256-2.427-21.732-4.14
					c0.532,6.725,1.65,12.598,3.226,17.728C167.588,228.555,175.285,230.02,182.301,231.166z"/>
				<path style="fill:#263238;" d="M178.217,209.453c-0.379-5.34-0.407-11.147,0.011-17.482c-6.39-0.919-13.761-2.138-21.299-3.699
					c-0.481,6.163-0.582,11.813-0.351,16.989C163.981,206.991,171.451,208.373,178.217,209.453z"/>
			</g>
		</g>
		<g>
			<path style="fill:#263238;" d="M376.763,247.972c-2.799-39.164-28.809-69.216-58.095-67.123
				c-5.49,0.392-22.001,3.567-25.311,3.804c-29.286,2.093-50.759,35.538-47.96,74.702c2.799,39.164,28.809,69.216,58.096,67.123
				c5.49-0.392,22.001-3.567,25.311-3.804C358.09,320.581,379.562,287.135,376.763,247.972z"/>
			
				<ellipse transform="matrix(0.9975 -0.0713 0.0713 0.9975 -17.1237 23.7186)" style="opacity:0.2;fill:#FAFAFA;" cx="323.735" cy="251.762" rx="53.163" ry="71.093"/>
			<g>
				
					<path style="fill:none;stroke:#263238;stroke-width:0.5248;stroke-linecap:round;stroke-linejoin:round;stroke-miterlimit:10;stroke-dasharray:12.5959,5.2483,2.0993,20.9932,31.4898,5.2483;" d="
					M323.133,315.539c-22.978-3.179-42.01-29.436-44.271-61.077c-2.548-35.651,16.36-66.156,42.15-67.999
					c2.368-0.169,4.764-0.09,7.121,0.236c22.978,3.179,42.011,29.436,44.272,61.078c1.258,17.6-2.638,34.439-10.969,47.417
					c-7.964,12.405-19.038,19.714-31.181,20.583C327.886,315.945,325.49,315.866,323.133,315.539z"/>
				
					<path style="fill:none;stroke:#263238;stroke-width:0.5248;stroke-linecap:round;stroke-linejoin:round;stroke-miterlimit:10;stroke-dasharray:12.5959,5.2483,2.0993,20.9932,31.4898,5.2483;" d="
					M323.993,309.327c-20.108-2.782-36.82-26.56-38.875-55.311c-1.139-15.936,2.243-31.181,9.523-42.926
					c6.881-11.101,16.405-17.625,26.818-18.369c1.934-0.138,3.89-0.074,5.814,0.192c20.108,2.782,36.82,26.561,38.875,55.312
					c1.162,16.258-2.386,31.736-9.991,43.581c-6.869,10.699-16.228,16.991-26.351,17.715
					C327.874,309.658,325.918,309.593,323.993,309.327z"/>
				
					<path style="fill:none;stroke:#263238;stroke-width:0.5248;stroke-linecap:round;stroke-linejoin:round;stroke-miterlimit:10;stroke-dasharray:12.5959,5.2483,2.0993,20.9932,31.4898,5.2483;" d="
					M324.852,303.113c-16.955-2.345-31.66-24.109-33.478-49.545c-1.046-14.63,2.007-28.543,8.598-39.175
					c5.793-9.346,13.582-14.821,21.934-15.417c1.499-0.108,3.015-0.057,4.508,0.149c16.955,2.346,31.661,24.108,33.478,49.546
					c1.067,14.916-2.134,29.032-9.012,39.746c-5.775,8.995-13.418,14.268-21.521,14.847
					C327.862,303.371,326.344,303.32,324.852,303.113z"/>
				
					<path style="fill:none;stroke:#263238;stroke-width:0.5248;stroke-linecap:round;stroke-linejoin:round;stroke-miterlimit:10;stroke-dasharray:12.5959,5.2483,2.0993,20.9932,31.4898,5.2483;" d="
					M325.712,296.901c-13.897-1.922-26.493-21.562-28.081-43.78c-0.953-13.324,1.772-25.904,7.673-35.423
					c4.704-7.589,10.759-12.016,17.05-12.466c1.064-0.077,2.141-0.041,3.201,0.106c13.897,1.923,26.494,21.562,28.081,43.78
					c0.971,13.575-1.883,26.328-8.034,35.911c-4.681,7.289-10.609,11.544-16.691,11.979
					C327.851,297.083,326.773,297.047,325.712,296.901z"/>
				
					<path style="fill:none;stroke:#263238;stroke-width:0.5248;stroke-linecap:round;stroke-linejoin:round;stroke-miterlimit:10;stroke-dasharray:12.5959,5.2483,2.0993,20.9932,31.4898,5.2483;" d="
					M326.571,290.688c-9.539-1.32-21.201-17.256-22.684-38.014c-0.86-12.018,1.537-23.265,6.747-31.671
					c3.563-5.749,7.998-9.216,12.167-9.514c0.63-0.045,1.266-0.024,1.894,0.062c9.539,1.32,21.202,17.257,22.684,38.015
					c0.875,12.233-1.631,23.624-7.056,32.076c-3.534,5.504-7.857,8.825-11.86,9.111
					C327.839,290.797,327.201,290.775,326.571,290.688z"/>
			</g>
		</g>
		<g>
			<path style="fill:#407BFF;" d="M397.294,245.982c-3.442-48.157-35.425-85.11-71.436-82.536c-1.21,0.087-2.408,0.22-3.595,0.392
				c-0.026,0.002-0.052,0.002-0.078,0.004c-36.011,2.574-62.414,43.699-58.973,91.857c3.442,48.157,35.425,85.11,71.436,82.536
				c1.21-0.086,2.408-0.22,3.595-0.392c0.026-0.002,0.052-0.002,0.078-0.004C374.333,335.265,400.736,294.139,397.294,245.982z
				 M385.881,247.15c0.718,10.352-4.385,19.31-11.711,21.308c-7.954-0.391-14.757-8.824-15.505-19.614
				c-0.718-10.352,4.385-19.31,11.711-21.308C378.33,227.927,385.133,236.361,385.881,247.15z M352.982,182.854
				c7.752,5.29,11.08,17.783,7.433,27.904c-2.072,5.751-5.95,9.495-10.335,10.689c-2.224-0.117-4.484-0.873-6.63-2.337
				c-7.752-5.29-11.08-17.783-7.433-27.904c2.072-5.751,5.95-9.495,10.335-10.689C348.576,180.633,350.836,181.389,352.982,182.854z
				 M324.79,264.847c-0.248-0.93-0.213-1.917,0.099-2.781c0.104-0.289,0.237-0.552,0.392-0.785c1.054,1.062,1.459,2.977,0.888,4.562
				c-0.104,0.289-0.237,0.552-0.393,0.786C325.326,266.178,324.981,265.565,324.79,264.847z M327.793,250.949
				c-0.16-2.236,0.659-4.237,1.986-5.286c1.57,0.785,2.766,2.724,2.934,5.069c0.16,2.236-0.659,4.237-1.986,5.286
				C329.157,255.233,327.961,253.294,327.793,250.949z M335.717,236.833c0.248,0.93,0.213,1.917-0.099,2.781
				c-0.104,0.289-0.237,0.551-0.392,0.785c-1.054-1.062-1.459-2.977-0.888-4.562c0.104-0.289,0.238-0.552,0.393-0.786
				C335.181,235.503,335.525,236.116,335.717,236.833z M274.625,254.531c-0.718-10.352,4.385-19.31,11.712-21.308
				c7.954,0.391,14.757,8.825,15.505,19.614c0.718,10.352-4.384,19.31-11.711,21.308
				C282.177,273.754,275.373,265.32,274.625,254.531z M307.524,318.827c-7.752-5.29-11.08-17.783-7.433-27.904
				c2.072-5.751,5.951-9.495,10.335-10.689c2.224,0.117,4.484,0.873,6.63,2.337c7.752,5.29,11.08,17.783,7.433,27.904
				c-2.072,5.751-5.95,9.495-10.335,10.689C311.931,321.047,309.671,320.292,307.524,318.827z M324.146,236.675
				c0.427,0.814,0.598,1.788,0.481,2.743c-0.081,0.661-0.301,1.251-0.621,1.733c-0.237-0.24-0.452-0.524-0.627-0.857
				c-0.427-0.813-0.599-1.788-0.482-2.742c0.081-0.661,0.301-1.251,0.621-1.734C323.756,236.059,323.971,236.342,324.146,236.675z
				 M320.09,251.602c0.07,1.015-0.18,1.954-0.638,2.65c-0.623-0.63-1.064-1.579-1.14-2.678c-0.07-1.015,0.18-1.953,0.637-2.649
				C319.573,249.555,320.013,250.504,320.09,251.602z M316.322,192.686c5.01,9.536,3.437,22.361-3.512,28.645
				c-1.655,1.496-3.467,2.471-5.332,2.983c-4.834-0.248-9.606-3.475-12.648-9.267c-5.01-9.536-3.437-22.36,3.512-28.645
				c1.654-1.496,3.466-2.471,5.332-2.984C308.508,183.668,313.279,186.895,316.322,192.686z M336.36,265.006
				c-0.75-1.428-0.654-3.273,0.14-4.476c0.237,0.24,0.452,0.524,0.627,0.857c0.428,0.814,0.599,1.788,0.482,2.742
				c-0.081,0.661-0.301,1.251-0.621,1.734C336.75,265.622,336.535,265.339,336.36,265.006z M340.417,250.079
				c-0.07-1.015,0.18-1.953,0.637-2.649c0.624,0.63,1.064,1.579,1.141,2.677c0.07,1.015-0.18,1.954-0.638,2.65
				C340.933,252.127,340.493,251.177,340.417,250.079z M344.185,308.995c-5.01-9.536-3.437-22.36,3.512-28.645
				c1.654-1.496,3.466-2.471,5.332-2.984c4.835,0.248,9.606,3.475,12.648,9.267c5.01,9.536,3.437,22.361-3.512,28.645
				c-1.654,1.496-3.466,2.471-5.332,2.984C351.999,318.013,347.227,314.786,344.185,308.995z"/>
			<path style="opacity:0.2;fill:#FAFAFA;" d="M325.858,163.446c-36.012,2.574-62.415,43.699-58.973,91.857
				c3.442,48.157,35.425,85.11,71.437,82.537c36.011-2.574,62.414-43.699,58.973-91.857
				C393.853,197.825,361.869,160.872,325.858,163.446z M336.017,191.206c3.647-10.121,12.887-14.038,20.638-8.748
				c7.752,5.29,11.08,17.783,7.433,27.904c-3.647,10.121-12.887,14.038-20.639,8.748C335.698,213.82,332.37,201.327,336.017,191.206
				z M345.868,249.71c0.139,2.004-0.967,3.721-2.466,3.828l-0.007,0c-1.503,0.101-2.839-1.451-2.978-3.46
				c-0.139-2.004,0.967-3.721,2.466-3.828C344.392,246.149,345.728,247.701,345.868,249.71z M334.338,235.838
				c0.41-1.136,1.26-1.885,2.22-1.954c0.486-0.035,0.977,0.107,1.422,0.411c0.661,0.451,1.162,1.212,1.41,2.142
				c0.248,0.93,0.213,1.917-0.098,2.781c-0.41,1.137-1.261,1.886-2.22,1.954c-0.485,0.035-0.977-0.107-1.422-0.411
				C334.284,239.83,333.695,237.621,334.338,235.838z M327.819,236.279c0.428,0.814,0.599,1.788,0.482,2.743
				c-0.117,0.954-0.508,1.775-1.101,2.311c-0.395,0.357-0.857,0.564-1.337,0.598c-0.966,0.069-1.918-0.558-2.484-1.637
				c-0.427-0.813-0.598-1.788-0.481-2.742c0.117-0.955,0.508-1.776,1.101-2.312c0.394-0.357,0.856-0.563,1.336-0.597
				C326.301,234.574,327.253,235.201,327.819,236.279z M298.342,186.403c6.949-6.285,16.644-3.649,21.653,5.887
				c5.009,9.536,3.437,22.36-3.512,28.645c-6.949,6.285-16.644,3.649-21.653-5.887C289.82,205.512,291.393,192.688,298.342,186.403z
				 M323.763,251.206c0.139,2.004-0.967,3.721-2.466,3.828l-0.007,0.001c-1.503,0.101-2.839-1.451-2.978-3.46
				c-0.139-2.004,0.967-3.721,2.466-3.828C322.288,247.644,323.624,249.196,323.763,251.206z M274.625,254.531
				c-0.791-11.406,5.483-21.12,14.013-21.697c8.53-0.577,16.086,8.201,16.877,19.607c0.791,11.406-5.483,21.12-14.013,21.697
				C282.972,274.714,275.416,265.936,274.625,254.531z M328.163,310.079c-3.646,10.121-12.886,14.038-20.638,8.748
				c-7.752-5.29-11.08-17.783-7.433-27.904c3.646-10.121,12.887-14.038,20.638-8.749
				C328.481,287.464,331.809,299.957,328.163,310.079z M329.842,265.447c-0.409,1.136-1.26,1.886-2.22,1.954
				c-0.485,0.035-0.977-0.107-1.422-0.412c-0.662-0.451-1.162-1.212-1.41-2.142c-0.248-0.93-0.213-1.917,0.098-2.781
				c0.409-1.137,1.26-1.886,2.22-1.954c0.485-0.035,0.977,0.107,1.422,0.411C329.896,261.454,330.484,263.663,329.842,265.447z
				 M327.793,250.949c-0.227-3.173,1.513-5.883,3.886-6.052c2.373-0.17,4.48,2.265,4.707,5.438c0.227,3.173-1.513,5.883-3.886,6.052
				C330.128,256.557,328.02,254.122,327.793,250.949z M336.36,265.006c-0.882-1.68-0.604-3.948,0.62-5.054
				c0.395-0.357,0.857-0.564,1.336-0.598c0.966-0.069,1.918,0.558,2.484,1.637c0.428,0.814,0.599,1.788,0.482,2.742
				c-0.117,0.955-0.508,1.776-1.101,2.312c-0.394,0.356-0.857,0.563-1.336,0.597C337.879,266.71,336.927,266.084,336.36,265.006z
				 M365.838,314.881c-6.949,6.285-16.644,3.649-21.653-5.887c-5.01-9.536-3.437-22.36,3.512-28.645
				c6.949-6.284,16.644-3.649,21.653,5.887C374.359,295.772,372.787,308.597,365.838,314.881z M375.542,268.451
				c-8.53,0.577-16.086-8.201-16.877-19.607c-0.791-11.406,5.483-21.12,14.013-21.697c8.53-0.577,16.086,8.201,16.877,19.607
				C390.345,258.16,384.072,267.874,375.542,268.451z"/>
		</g>
	</g>
</g>
<g id="Plant">
	<g>
		<path style="fill:#407BFF;" d="M408.949,389.208c0,0-1.274-14.039-8.169-18.863c-4.88-3.415-1.703,6.018-1.703,6.018
			s-7.083-9.56-11.096-7.055c-4.013,2.505,7.064,12.088,7.064,12.088s-4.154-3.248-4.352,1.002
			C390.495,386.648,404.261,391.768,408.949,389.208z"/>
		<path style="opacity:0.2;fill:#FFFFFF;" d="M408.949,389.208c0,0-1.274-14.039-8.169-18.863c-4.88-3.415-1.703,6.018-1.703,6.018
			s-7.083-9.56-11.096-7.055c-4.013,2.505,7.064,12.088,7.064,12.088s-4.154-3.248-4.352,1.002
			C390.495,386.648,404.261,391.768,408.949,389.208z"/>
		<path style="fill:none;stroke:#407BFF;stroke-miterlimit:10;" d="M409.209,396.242c0,0-8.588-12.941-1.207-30.716
			c7.382-17.774,13.71-36.98,8.424-55.09"/>
		<path style="fill:#407BFF;" d="M407.246,389.208c0,0-1.839-7.913,2.315-14.039c4.154-6.126,3.165,1.391,3.165,1.391
			s5.143-8.002,10.088-9.737c4.945-1.735-0.989,7.364-0.989,7.364s2.176-1.594,3.56,0.983
			C426.77,377.747,419.964,387.417,407.246,389.208z"/>
		<path style="opacity:0.4;fill:#FFFFFF;" d="M407.246,389.208c0,0-1.839-7.913,2.315-14.039c4.154-6.126,3.165,1.391,3.165,1.391
			s5.143-8.002,10.088-9.737c4.945-1.735-0.989,7.364-0.989,7.364s2.176-1.594,3.56,0.983
			C426.77,377.747,419.964,387.417,407.246,389.208z"/>
		<g>
			<path style="fill:#263238;" d="M387.163,398.512c0,10.393-4.586,18.818,18.818,18.818c20.8,0,18.818-8.425,18.818-18.818
				c0-10.393-8.425-13.336-18.818-13.336C395.589,385.175,387.163,388.119,387.163,398.512z"/>
			
				<rect x="385.117" y="384.978" transform="matrix(-1 -1.224647e-16 1.224647e-16 -1 811.8981 780.2655)" style="fill:#263238;" width="41.664" height="10.309"/>
			
				<rect x="385.117" y="384.978" transform="matrix(-1 -1.224647e-16 1.224647e-16 -1 811.8981 780.2655)" style="opacity:0.2;fill:#FFFFFF;enable-background:new    ;" width="41.664" height="10.309"/>
		</g>
		<path style="fill:none;stroke:#407BFF;stroke-miterlimit:10;" d="M406.603,347.981c0,0-0.195,8.624,2.448,14.988
			c0,0,12.957-5.861,16.289-10.355"/>
		<path style="fill:none;stroke:#407BFF;stroke-miterlimit:10;" d="M409.914,325.31c0,0,5.52,3.947,7.466,10.535
			c0,0,10.722-8.392,12.568-13.044"/>
		<g>
			<path style="fill:#407BFF;" d="M417.927,317.609c0,0,0.415-3.276-4.354-6.706c-4.769-3.43-5.85-8.29-3.035-10.34
				c2.815-2.05-2.327-6.175,1.18-6.971c3.507-0.796,1.831,5.6,4.838,5.254C419.564,298.5,422.598,306.72,417.927,317.609z"/>
			<path style="fill:#407BFF;" d="M425.478,328.644c0,0,1.382-3.884,0.697-8.078c-0.685-4.194,3.284-6.889,4.869-3.319
				c1.585,3.57,4.984-1.388,6.53,3.167c1.546,4.554-6.42,4.942-5.551,7.161C432.893,329.794,425.478,328.644,425.478,328.644z"/>
			<path style="fill:#407BFF;" d="M413.957,329.357c0,0-2.553-10.134-3.982-11.278c-1.429-1.144-1.323,1.922-3.717,0.17
				c-2.393-1.752-6.306-2.84-5.823,0.951c0.482,3.792,7.253,4.849,4.786,6.876C402.754,328.103,412.469,327.205,413.957,329.357z"/>
			<path style="fill:#407BFF;" d="M406.966,354.296c0,0,6.061-5.697,3.985-7.025c-2.076-1.327-2.115,1.485-2.643-1.435
				c-0.528-2.92,0.134-6.226-2.794-5.748c-2.928,0.478-0.541,7.728-2.365,7.609s-4.131-2.315-3.78,0.617
				C399.72,351.247,406.966,354.296,406.966,354.296z"/>
			<path style="fill:#407BFF;" d="M418.68,358.267c0,0,3.277-5.842,3.224-9.241c-0.053-3.398,4.091-4.818,3.763-0.615
				c-0.327,4.203,4.517-4.531,6.492-2.256c1.975,2.275,0.987,7.423-2.449,8.397c-3.436,0.974,0.911,2.345-0.589,4.556
				C427.621,361.32,418.68,358.267,418.68,358.267z"/>
			<g style="opacity:0.2;">
				<path style="fill:#FFFFFF;" d="M417.927,317.609c0,0,0.415-3.276-4.354-6.706c-4.769-3.43-5.85-8.29-3.035-10.34
					c2.815-2.05-2.327-6.175,1.18-6.971c3.507-0.796,1.831,5.6,4.838,5.254C419.564,298.5,422.598,306.72,417.927,317.609z"/>
				<path style="fill:#FFFFFF;" d="M425.478,328.644c0,0,1.382-3.884,0.697-8.078c-0.685-4.194,3.284-6.889,4.869-3.319
					c1.585,3.57,4.984-1.388,6.53,3.167c1.546,4.554-6.42,4.942-5.551,7.161C432.893,329.794,425.478,328.644,425.478,328.644z"/>
				<path style="fill:#FFFFFF;" d="M413.957,329.357c0,0-2.553-10.134-3.982-11.278c-1.429-1.144-1.323,1.922-3.717,0.17
					c-2.393-1.752-6.306-2.84-5.823,0.951c0.482,3.792,7.253,4.849,4.786,6.876C402.754,328.103,412.469,327.205,413.957,329.357z"
					/>
				<path style="fill:#FFFFFF;" d="M406.966,354.296c0,0,6.061-5.697,3.985-7.025c-2.076-1.327-2.115,1.485-2.643-1.435
					c-0.528-2.92,0.134-6.226-2.794-5.748c-2.928,0.478-0.541,7.728-2.365,7.609s-4.131-2.315-3.78,0.617
					C399.72,351.247,406.966,354.296,406.966,354.296z"/>
				<path style="fill:#FFFFFF;" d="M418.68,358.267c0,0,3.277-5.842,3.224-9.241c-0.053-3.398,4.091-4.818,3.763-0.615
					c-0.327,4.203,4.517-4.531,6.492-2.256c1.975,2.275,0.987,7.423-2.449,8.397c-3.436,0.974,0.911,2.345-0.589,4.556
					C427.621,361.32,418.68,358.267,418.68,358.267z"/>
			</g>
		</g>
	</g>
</g>
<g id="Character">
	<g>
		<g>
			<path style="fill:#FFC3BD;" d="M105.215,202.704l-1.907,1.566c-0.656,0.544-1.303,1.099-1.936,1.658
				c-1.266,1.115-2.488,2.255-3.558,3.398c-1.066,1.124-2.003,2.315-2.508,3.212c-0.137,0.223-0.225,0.411-0.293,0.553
				c-0.05,0.086-0.047,0.118-0.084,0.175l-0.012,0.02l0.007-0.074c0.004-0.053,0.004-0.107-0.001-0.16
				c0.005-0.071-0.014-0.17-0.019-0.211c-0.117-0.38-0.046,0.163,0.216,0.67c0.517,1.116,1.534,2.484,2.573,3.804
				c1.061,1.334,2.246,2.653,3.451,3.98c2.425,2.632,5.042,5.259,7.592,7.849l-3.145,4.244c-3.399-1.899-6.551-4.001-9.649-6.373
				c-1.55-1.18-3.053-2.446-4.537-3.835c-1.486-1.412-2.915-2.889-4.304-4.981c-0.343-0.536-0.687-1.121-0.995-1.833
				c-0.305-0.714-0.606-1.553-0.737-2.688c-0.035-0.272-0.042-0.605-0.046-0.908l0.027-0.508l0.022-0.248l0.019-0.152
				c0.056-0.399,0.108-0.833,0.199-1.192c0.165-0.759,0.383-1.455,0.63-2.08c1.007-2.518,2.32-4.352,3.658-6.063
				c1.355-1.687,2.79-3.171,4.282-4.56c0.748-0.691,1.512-1.354,2.291-1.997c0.802-0.652,1.541-1.226,2.487-1.887L105.215,202.704z"
				/>
		</g>
		<g>
			<path style="fill:#407BFF;" d="M118.568,191.196c0.314,6.331-13.483,15.517-13.483,15.517l-12.471-9.374
				c0,0,2.896-5.549,9.939-9.642C109.933,183.409,118.247,184.722,118.568,191.196z"/>
			<path style="opacity:0.6;fill:#FAFAFA;" d="M118.575,191.201c0.126,2.656-2.236,5.826-5.028,8.607
				c-2.341,2.33-4.975,4.387-6.676,5.647c-1.081,0.787-1.785,1.26-1.785,1.26l-9.384-7.054l-3.086-2.32c0,0,0.095-0.168,0.273-0.472
				c0.882-1.438,3.863-5.794,9.657-9.174C109.936,183.402,118.249,184.725,118.575,191.201z"/>
		</g>
		<polygon style="fill:#407BFF;" points="92.614,195.82 106.783,206.712 104.428,209.249 91.279,198.03 		"/>
		<path style="opacity:0.2;" d="M113.547,199.809c-2.341,2.33-4.975,4.387-6.676,5.647c-0.399-4.451,2.215-9.636,2.215-9.636
			C110.765,196.891,112.287,198.287,113.547,199.809z"/>
		<path style="fill:#FFC3BD;" d="M108.736,229.145c0,0,3.922,5.561,3.333,7.839c-0.589,2.278-2.588,5.931-2.588,5.931l-6.367,0.757
			l2.114-5.566l0.367-5.431L108.736,229.145z"/>
		<polygon style="fill:#FFC3BD;" points="78.494,407.547 84.937,408.941 91.406,394.722 84.963,393.327 		"/>
		<polygon style="fill:#FFC3BD;" points="126.88,410.598 133.472,410.598 134.129,395.332 127.536,395.332 		"/>
		<g>
			<polygon style="opacity:0.2;" points="134.127,395.336 133.79,403.205 127.195,403.205 127.532,395.336 			"/>
			<polygon style="opacity:0.2;" points="84.96,393.33 91.405,394.726 88.068,402.055 81.622,400.659 			"/>
		</g>
		<path style="fill:#263238;" d="M131.599,242.915c0,0-0.039,0.285-0.118,0.816c-0.089,0.59-0.226,1.475-0.394,2.626
			c-1.259,8.291-4.573,29.977-7.622,47.543c-1.249,7.17-2.449,13.661-3.452,18.264c-4.505,20.673-28.62,89.048-28.62,89.048
			l-11.802-2.547c0,0,16.867-55.726,20.644-84.622c2.439-18.648,6.855-56.178,8.202-67.686c0.138-1.151,0.236-2.036,0.305-2.626
			c0.069-0.531,0.098-0.816,0.098-0.816H131.599z"/>
		<path style="opacity:0.2;fill:#FAFAFA;" d="M131.599,242.915c0,0-0.039,0.285-0.118,0.816c-0.089,0.59-0.226,1.475-0.394,2.626
			c-1.259,8.291-4.573,29.977-7.622,47.543c-1.249,7.17-2.449,13.661-3.452,18.264c-4.505,20.673-28.62,89.048-28.62,89.048
			l-11.802-2.547c0,0,16.867-55.726,20.644-84.622c2.439-18.648,6.855-56.178,8.202-67.686c0.138-1.151,0.236-2.036,0.305-2.626
			c0.069-0.531,0.098-0.816,0.098-0.816H131.599z"/>
		<path style="opacity:0.3;" d="M126.869,260.86c-8.651,1.696-7.735,33.957-6.694,50.549c2.495-11.728,6.147-34.297,8.641-50.315
			C128.242,260.806,127.596,260.716,126.869,260.86z"/>
		<path style="fill:#263238;" d="M144.296,312.302c-0.747,20.91-8.045,89.382-8.045,89.382h-11.173c0,0-0.413-67.253-0.905-87.789
			c-0.128-5.459-0.393-12.481-0.708-19.975c0-0.01,0-0.01,0-0.02c-0.787-18.293-1.908-39.41-2.351-47.543
			c-0.059-1.151-0.108-2.036-0.138-2.626c-0.03-0.531-0.049-0.816-0.049-0.816h23.181c0,0,0.01,0.285,0.01,0.816
			c0.02,0.59,0.03,1.475,0.049,2.626C144.355,257.884,144.896,295.405,144.296,312.302z"/>
		<path style="opacity:0.2;fill:#FAFAFA;" d="M144.296,312.302c-0.747,20.91-8.045,89.382-8.045,89.382h-11.173
			c0,0-0.413-67.253-0.905-87.789c-0.128-5.459-0.393-12.481-0.708-19.975c0-0.01,0-0.01,0-0.02
			c-0.787-18.293-1.908-39.41-2.351-47.543c-0.059-1.151-0.108-2.036-0.138-2.626c-0.03-0.531-0.049-0.816-0.049-0.816h23.181
			c0,0,0.01,0.285,0.01,0.816c0.02,0.59,0.03,1.475,0.049,2.626C144.355,257.884,144.896,295.405,144.296,312.302z"/>
		<path style="fill:#263238;" d="M134.915,159.892c0.106,0.521,0.468,0.887,0.809,0.818c0.341-0.069,0.531-0.548,0.425-1.069
			c-0.106-0.521-0.468-0.887-0.809-0.818C134.999,158.893,134.809,159.371,134.915,159.892z"/>
		<path style="fill:#ED847E;" d="M135.335,160.789c0,0,1.796,2.765,3.395,3.951c-0.747,1.048-2.394,0.973-2.394,0.973
			L135.335,160.789z"/>
		<path style="fill:#263238;" d="M132.419,157.387c-0.076,0-0.152-0.027-0.212-0.083c-0.127-0.117-0.134-0.315-0.017-0.441
			c1.173-1.269,2.595-1.044,2.657-1.033c0.17,0.029,0.284,0.19,0.255,0.36c-0.029,0.17-0.192,0.283-0.359,0.256l0,0
			c-0.047-0.007-1.159-0.171-2.095,0.841C132.587,157.353,132.503,157.387,132.419,157.387z"/>
		<path style="fill:#FFC3BD;" d="M120.071,167.221c0.946,4.823,1.889,13.659-1.485,16.877c0,0,1.319,4.892,10.28,4.892
			c9.854,0,4.709-4.892,4.709-4.892c-5.378-1.284-5.239-5.274-4.302-9.022L120.071,167.221z"/>
		<path style="fill:#407BFF;" d="M116.642,184.993c-0.72-1.34-1.514-2.874,0.127-3.354c1.805-0.528,13.403-1.509,16.81-0.516
			c-1.047,1.862,0.725,4.151,0.725,4.151L116.642,184.993z"/>
		<path style="fill:#407BFF;" d="M87.448,409.831c0.661,0.143,1.323,0.181,1.641-0.09c0.133-0.114,0.268-0.332,0.151-0.725
			c-0.062-0.207-0.197-0.361-0.402-0.459c-0.89-0.425-2.936,0.409-3.023,0.444c-0.057,0.023-0.095,0.078-0.096,0.14
			c-0.002,0.062,0.033,0.118,0.088,0.145C86.12,409.436,86.784,409.687,87.448,409.831z M88.521,408.777
			c0.067,0.015,0.129,0.035,0.183,0.061c0.124,0.059,0.201,0.147,0.237,0.266c0.084,0.281-0.02,0.37-0.055,0.399
			c-0.354,0.301-1.671,0.024-2.598-0.348C86.917,408.934,87.935,408.65,88.521,408.777z"/>
		<path style="fill:#407BFF;" d="M85.842,409.297c0.025,0.005,0.051,0.005,0.077-0.003c0.745-0.218,2.34-1.35,2.359-2.098
			c0.003-0.135-0.044-0.382-0.399-0.505c-0.231-0.081-0.463-0.061-0.692,0.055c-0.881,0.45-1.438,2.276-1.461,2.353
			c-0.016,0.055-0.002,0.114,0.039,0.155C85.786,409.277,85.813,409.291,85.842,409.297z M87.708,406.967
			c0.023,0.005,0.046,0.012,0.069,0.019c0.193,0.067,0.19,0.162,0.189,0.202c-0.011,0.442-1.063,1.331-1.835,1.691
			c0.193-0.527,0.633-1.566,1.198-1.854C87.458,406.959,87.583,406.94,87.708,406.967z"/>
		<path style="fill:#407BFF;" d="M136.12,410.937c0.846,0,1.663-0.117,1.937-0.497c0.096-0.133,0.171-0.359-0.013-0.682
			c-0.103-0.181-0.27-0.304-0.495-0.365c-1.097-0.298-3.401,1.015-3.499,1.071c-0.056,0.033-0.087,0.096-0.076,0.161
			c0.011,0.064,0.06,0.115,0.124,0.128C134.519,410.836,135.332,410.937,136.12,410.937z M137.166,409.658
			c0.11,0,0.212,0.011,0.302,0.036c0.144,0.039,0.244,0.111,0.306,0.219c0.11,0.194,0.07,0.29,0.03,0.345
			c-0.307,0.426-1.973,0.436-3.199,0.263C135.216,410.207,136.395,409.658,137.166,409.658z"/>
		<path style="fill:#407BFF;" d="M134.129,410.755c0.022,0,0.043-0.005,0.064-0.014c0.796-0.357,2.372-1.783,2.251-2.528
			c-0.029-0.175-0.153-0.393-0.581-0.436c-0.32-0.033-0.61,0.058-0.866,0.268c-0.839,0.689-1.016,2.464-1.023,2.54
			c-0.005,0.055,0.019,0.109,0.064,0.141C134.065,410.745,134.097,410.755,134.129,410.755z M135.737,408.082
			c0.031,0,0.062,0.002,0.094,0.005c0.281,0.029,0.299,0.139,0.305,0.175c0.072,0.447-0.999,1.568-1.81,2.056
			c0.085-0.519,0.319-1.581,0.87-2.033C135.361,408.149,135.539,408.082,135.737,408.082z"/>
		<path style="fill:#263238;" d="M85.556,408.294l-7.238-1.567c-0.263-0.057-0.531,0.077-0.644,0.321l-2.513,5.452
			c-0.261,0.565,0.084,1.229,0.695,1.35c2.536,0.504,3.796,0.621,6.979,1.311c1.959,0.424,6.379,1.501,9.084,2.086
			c2.645,0.573,3.637-2.012,2.582-2.494c-4.729-2.161-6.705-4.063-7.985-5.836C86.286,408.598,85.942,408.378,85.556,408.294z"/>
		<path style="fill:#263238;" d="M133.429,409.835h-7.199c-0.27,0-0.503,0.187-0.561,0.45l-1.302,5.86
			c-0.135,0.607,0.326,1.183,0.948,1.172c2.597-0.044,6.35-0.196,9.614-0.196c3.817,0,7.113,0.208,11.589,0.208
			c2.706,0,3.458-2.736,2.325-2.984c-5.157-1.128-9.368-1.249-13.824-3.997C134.532,410.05,133.998,409.835,133.429,409.835z"/>
		<g>
			<path style="fill:#407BFF;" d="M143.715,185.929c0,0,7.017,7.926,0.39,56.98c-10.624,0-30.091,0-35.26,0
				c-0.243-5.413,3.158-31.817-2.062-57.32c0,0,6.044-1.213,11.803-1.49c4.506-0.217,11.028-0.361,14.989,0.001
				C138.797,184.576,143.715,185.929,143.715,185.929z"/>
			<path style="opacity:0.6;fill:#FAFAFA;" d="M146.942,209.249c-0.108,8.173-0.865,19.11-2.832,33.666H108.84
				c-0.236-5.419,3.167-31.817-2.056-57.329c0,0,6.039-1.21,11.802-1.485c4.504-0.216,11.025-0.364,14.989,0
				c5.222,0.472,10.14,1.829,10.14,1.829s1.328,1.495,2.281,7.219C146.588,196.689,147.03,201.833,146.942,209.249z"/>
		</g>
		<path style="opacity:0.2;" d="M146.942,209.249c-2.951-3.098-8.084-9.294-7.642-14.497l6.698-1.603
			C146.588,196.689,147.03,201.833,146.942,209.249z"/>
		<path style="fill:#FFC3BD;" d="M117.31,162.32c1.694,6.32,2.364,10.105,6.264,12.732c5.866,3.953,13.17-0.584,13.398-7.282
			c0.206-6.029-2.599-15.351-9.38-16.625C120.91,149.891,115.617,156.001,117.31,162.32z"/>
		<path style="fill:#263238;" d="M120.212,172.625c2.687,1.538,12.484-3.601,10.472-11.39c0,0,3.732-4.488,3.31-9.44
			c-0.421-4.952-3.821-6.84-7.437-5.777c-3.188,0.937-3.095,2.682-3.095,2.682s-15.065,1.774-11.849,7.897
			C105.479,163.282,116.859,170.706,120.212,172.625z"/>
		<path style="fill:#FFC3BD;" d="M128.063,162.585c0.43,1.659,1.52,3.085,2.66,3.934c1.715,1.276,2.997,0.02,2.875-1.921
			c-0.11-1.747-1.135-4.517-3.027-5.035C128.706,159.052,127.571,160.688,128.063,162.585z"/>
		<path style="fill:#407BFF;" d="M94.219,397.276c0.05,0.011-2.2,4.268-2.2,4.268l-13.277-2.875l1.119-3.991L94.219,397.276z"/>
		<path style="fill:#407BFF;" d="M138.395,397.233c0.052,0-0.63,4.636-0.63,4.636h-13.585l-0.367-4.138L138.395,397.233z"/>
		<g>
			<path style="fill:#FFC3BD;" d="M141.252,189.351c1.864-0.592,3.945-1.236,5.901-1.925c1.981-0.687,3.957-1.388,5.907-2.129
				c3.885-1.492,7.71-3.117,11.191-5.022c3.314-1.771,6.392-4.254,9.39-7.106c2.973-2.818,5.902-5.993,8.583-9.158l4.537,2.705
				c-1.929,4.26-4.244,8.118-7.064,11.842c-1.412,1.842-2.941,3.642-4.662,5.326c-0.842,0.855-1.766,1.665-2.701,2.47
				c-0.972,0.755-2.013,1.573-2.992,2.195c-1.979,1.358-4.012,2.51-6.067,3.593c-2.048,1.097-4.136,2.045-6.233,2.963
				c-2.1,0.903-4.221,1.726-6.366,2.477c-2.174,0.739-4.251,1.446-6.59,2.051L141.252,189.351z"/>
		</g>
		<g>
			<path style="fill:#407BFF;" d="M140.807,200.635c6.336,6.513,22.208-2.361,22.208-2.361l-4.718-15.289
				c0,0-8.584,0.158-16.503,2.104C132.013,187.493,135.984,195.677,140.807,200.635z"/>
			<path style="opacity:0.6;fill:#FAFAFA;" d="M140.807,200.635c6.336,6.513,22.208-2.361,22.208-2.361l-4.718-15.289
				c0,0-8.584,0.158-16.503,2.104C132.013,187.493,135.984,195.677,140.807,200.635z"/>
		</g>
		<path style="fill:#FFC3BD;" d="M181.762,164.819l4.123-7.14l5.587,4.555c0,0-2.181,5.396-6.981,5.335L181.762,164.819z"/>
		<polygon style="fill:#FFC3BD;" points="188.856,156.119 194.18,158.962 191.424,162.345 185.885,157.679 		"/>
		<path style="opacity:0.6;fill:#FAFAFA;" d="M94.219,397.276c0.05,0.011-2.2,4.268-2.2,4.268l-13.277-2.875l1.119-3.991
			L94.219,397.276z"/>
		<path style="opacity:0.6;fill:#FAFAFA;" d="M138.395,397.233c0.052,0-0.63,4.636-0.63,4.636h-13.585l-0.367-4.138L138.395,397.233
			z"/>
		<polygon style="fill:#407BFF;" points="156.708,182.605 161.193,201.199 164.194,198.693 158.971,182.048 		"/>
		<rect x="113.094" y="243.729" style="fill:#263238;" width="12.321" height="2.628"/>
		<rect x="127.032" y="243.729" style="fill:#263238;" width="11.435" height="2.628"/>
		<path style="fill:#263238;" d="M112.007,243.731v2.626h-3.57c0.138-1.151,0.236-2.036,0.305-2.626H112.007z"/>
		<path style="fill:#263238;" d="M144.168,246.357h-4.593v-2.626h4.544C144.139,244.321,144.149,245.206,144.168,246.357z"/>
		<path style="fill:#263238;" d="M133.606,146.725c-5.658-5.738-11.09,2.109-11.09,2.109l9.59-0.935
			c4.424,2.236,2.359,7.648,2.359,7.648S138.231,151.415,133.606,146.725z"/>
	</g>
</g>
</svg>
